<svg id="Layer_1" data-name="Layer 1" xmlns="http://www.w3.org/2000/svg" viewBox="0 0 776.01 776"><defs><style>.cls-1{fill:none;stroke:#fddfb3;stroke-miterlimit:10;stroke-width:2.83px;}.cls-2{isolation:isolate;}.cls-3{fill:#ec620f;}.cls-4{fill:#a23503;}.cls-5{fill:#fa8331;}.cls-6{fill:#b63c02;}.cls-7{fill:#fdc48f;}.cls-8{fill:#da4902;}.cls-9{fill:#fdb373;}.cls-10{fill:#d64701;}.cls-11{fill:#e85d0c;}.cls-12{fill:#fb8735;}.cls-13{fill:#f87e2b;}.cls-14{fill:#882a04;}.cls-15{fill:#fdd5ab;}.cls-16{fill:#fdb77a;}.cls-17{fill:#ab3803;}.cls-18{fill:#dc4c03;}.cls-19{fill:#fdae6a;}.cls-20{fill:#e15407;}.cls-21{fill:#df5106;}.cls-22{fill:#f36f1a;}.cls-23{fill:#f0813f;}.cls-24{fill:#fdc595;}.cls-25{fill:#e5590a;}.cls-26{fill:#fdbe88;}.cls-27{fill:#f87d29;}.cls-28{fill:#fdab66;}.cls-29{fill:#bb3d02;}.cls-30{fill:#e99267;}.cls-31{fill:#db4a02;}.cls-32{fill:#fd9d53;}</style></defs><path class="cls-1" d="M827.5,302.51c-5-39.85-13.29-106.54-100.36-95.75-38.63,4.81-84.16,31-116.49,52.81l-8.72-70.31L101.21,251.61,162.5,744.83l500.59-62.35-4.59-37a106.51,106.51,0,0,0,24.84-.19l58-7.49c51.69-6.32,86.54-48.67,93.25-113.12C839.33,480.33,828.81,322.11,827.5,302.51ZM783.17,511.9c-2.23,20.78-10.78,56-42.61,60l-58.14,7.24a49.23,49.23,0,0,1-33.08-7.48L619.19,328.47c25.25-19.33,85.18-60.17,122.55-64.76,27-3.42,29.2-3.69,34.86,42.09C779.62,352.09,786.72,479.15,783.17,511.9Z" transform="translate(-61.23 -61.42)"/><path class="cls-1" d="M664.67,698.53l-499.8,62.08,5,40a40.46,40.46,0,0,0,45,35.12L634.68,783.5a40.29,40.29,0,0,0,35-45Z" transform="translate(-61.23 -61.42)"/><rect class="cls-1" x="67.35" y="96.52" width="549.38" height="107.49" transform="translate(-77.17 -18.01) rotate(-7.1)"/><g class="cls-2"><path class="cls-3" d="M229.29,429l20.43-2.66L219.05,582.9l-19.2,2.5L130.34,441.83l20.12-2.62,42.66,91.21q5.91,12.5,13.49,33.11,1.24-15.28,5-36.14Z" transform="translate(-61.23 -61.42)"/><path class="cls-3" d="M315.43,470.77l-27.9,1.44-1.64-12.63,46.29-6,12.76,98,36.4-2.65L383,561.57,292.86,573.3l-1.65-12.63L326.26,554Zm1.48-62.41q10.88-1.41,12.4,10.29.78,6-2.08,9.3a11.09,11.09,0,0,1-7.26,3.92q-11,1.42-12.52-10.37T316.91,408.36Z" transform="translate(-61.23 -61.42)"/><path class="cls-3" d="M504.43,492.11,425,502.45q5.83,38.38,40.32,33.9a95.17,95.17,0,0,0,37-12.74L504.4,540A90.39,90.39,0,0,1,468,552.59q-25.16,3.27-42.24-10.11T405.22,502.2q-3.56-27.3,8.28-45.07t35.13-20.81q21.76-2.83,36.54,9.24t17.75,34.95Zm-81-4.91,58.82-7.65q-4.07-31.31-32-27.67Q422,455.54,423.41,487.2Z" transform="translate(-61.23 -61.42)"/><path class="cls-3" d="M632.12,529.16l-88.49,11.51L542,527.84l56.58-94.63-64.36,8.37-1.83-14.06,83.25-10.83,1.95,15L562,524l68.27-8.88Z" transform="translate(-61.23 -61.42)"/></g><g class="cls-2"><path class="cls-4" d="M217,688.52l-9.34-20-22.58,2.94-4,21.72-8.74,1.13,13.43-70.41,9-1.17,31.1,64.62Zm-12.76-27.25-8.66-18.71q-2.53-5.46-4.2-10c-.22,3.12-.56,6-1,8.69l-3.83,22.35Z" transform="translate(-61.23 -61.42)"/><path class="cls-4" d="M242.2,678.75l-.56.07c.89,3.91,1.39,6.37,1.53,7.38l2.8,21.57-8.37,1.09-9.52-73.14,6.77-.88,2.12,6.65.37,0q4-8.38,13.81-9.65,9.24-1.21,15.4,5t7.77,18.52q1.62,12.42-2.77,20T258,684.13Q248.44,685.38,242.2,678.75Zm-2.72-20.84.25,1.88q1.35,10.44,5.13,14.47t10.77,3.11q12.51-1.62,10-21-2.48-19-15.08-17.4-7,.92-9.52,5.36T239.48,657.91Z" transform="translate(-61.23 -61.42)"/><path class="cls-4" d="M326.19,629.37l-17.89,2.32,5.75,44.21L305.68,677l-5.75-44.21-14.59,1.9-.65-5.06,14.38-3.41-.57-4.42q-1.15-8.88,2.46-13.42t13.23-5.79a42.77,42.77,0,0,1,11.8.1l-1,6.82a36.58,36.58,0,0,0-9.69,0q-5.65.74-7.38,3.29t-1,7.86l.62,4.78,17.89-2.33Z" transform="translate(-61.23 -61.42)"/><path class="cls-4" d="M387.79,642.26l-35.6,4.63q2.61,17.21,18.07,15.19a42.43,42.43,0,0,0,16.56-5.71l1,7.36a40.39,40.39,0,0,1-16.3,5.63q-11.26,1.47-18.92-4.53t-9.23-18.05q-1.59-12.24,3.71-20.2t15.75-9.32q9.75-1.26,16.37,4.14t8,15.66Zm-36.3-2.2,26.35-3.43q-1.81-14-14.33-12.4T351.49,640.06Z" transform="translate(-61.23 -61.42)"/><path class="cls-4" d="M413,596.93l-12.45.64-.73-5.62,20.74-2.69,8.46,65,16.31-1.18.74,5.65L405.63,664l-.73-5.65,15.7-3Z" transform="translate(-61.23 -61.42)"/><path class="cls-4" d="M490.92,652.89l-9.6-26.63-5.1-14.78-.28,0-1,15.75-2.66,28-8.7,1.13-16.83-49.17,7.46-1L462,630.69q2.68,8.35,5,17.74l.27,0c.22-5.79.54-11.42,1-16.87l2.66-27.39,8.88-1.15,9.3,25.83q3.13,8.72,5.22,16.06l.28,0q0-11.33.4-18.44l1.45-25.59,7.27-.94-3.78,51.85Z" transform="translate(-61.23 -61.42)"/><path class="cls-4" d="M557.39,620.2l-35.6,4.63Q524.4,642,539.85,640a42.64,42.64,0,0,0,16.57-5.71l1,7.36a40.65,40.65,0,0,1-16.3,5.63q-11.26,1.46-18.92-4.53t-9.23-18q-1.59-12.24,3.71-20.2t15.74-9.32q9.76-1.28,16.38,4.13t8,15.67ZM521.08,618l26.36-3.43q-1.82-14-14.34-12.4T521.08,618Z" transform="translate(-61.23 -61.42)"/><path class="cls-4" d="M585.76,595.92l-12.5.65-.74-5.66,20.75-2.7L599,632.14,615.3,631l.73,5.66-40.38,5.25-.74-5.65,15.7-3Zm.66-28c3.25-.43,5.11,1.11,5.56,4.61a5.15,5.15,0,0,1-.93,4.16,5,5,0,0,1-3.26,1.76q-4.92.64-5.61-4.65T586.42,568Z" transform="translate(-61.23 -61.42)"/><path class="cls-4" d="M663.92,630.38l-4.23-32.52q-1.56-12-12.51-10.54-14.11,1.84-11.74,20.15l3.41,26.17-8.37,1.09-6.57-50.51,6.76-.88,2.12,6.65.46-.06q3.74-8.34,14.46-9.74,17.88-2.33,20.29,16.12l4.29,33Z" transform="translate(-61.23 -61.42)"/></g><g class="cls-2"><path class="cls-5" d="M358.4,771.26l-16.58,2.16,5.33,40.94-7.75,1-5.33-41-13.51,1.76L320,771.5l13.33-3.17-.54-4.09Q331.67,756,335,751.81t12.25-5.36a39.22,39.22,0,0,1,10.93.09l-.95,6.32a34.12,34.12,0,0,0-9,0q-5.25.67-6.84,3c-1.07,1.59-1.39,4-1,7.28l.57,4.43,16.58-2.16Z" transform="translate(-61.23 -61.42)"/><path class="cls-5" d="M409.74,806.22,407.33,800l-.35,0a19.52,19.52,0,0,1-6,6.61,21.7,21.7,0,0,1-8.7,2.76q-6.94.9-11.36-2.25t-5.28-9.76q-1.85-14.15,19.8-17.65l8.61-1.43-.38-2.94q-1.31-10.05-11.71-8.7a34.57,34.57,0,0,0-13.52,5.31L375,766.45a37.22,37.22,0,0,1,15.79-6.21q9.66-1.26,14.48,1.89t5.87,11.32l4.17,32Zm-5.06-22.61-6.86,1.2q-8.31,1.43-11.51,4.16a7.83,7.83,0,0,0-2.59,7.42q1,7.59,9.51,6.48,6.27-.82,9.54-4.78c2.19-2.64,3-6.06,2.46-10.26Z" transform="translate(-61.23 -61.42)"/><path class="cls-5" d="M467.83,776.39l-33,4.29q2.41,15.93,16.73,14.07a39.42,39.42,0,0,0,15.35-5.29l.88,6.82a37.54,37.54,0,0,1-15.09,5.21q-10.44,1.37-17.53-4.19t-8.55-16.72q-1.47-11.34,3.44-18.71t14.58-8.64q9-1.17,15.17,3.83t7.37,14.52Zm-33.63-2,24.41-3.17q-1.69-13-13.28-11.49T434.2,774.35Z" transform="translate(-61.23 -61.42)"/><path class="cls-5" d="M495,770.74l-19.71-20.62,8.82-1.15,14.63,15.86,10.13-19.08,8.82-1.15-13.87,25,20.72,21.7-8.78,1.14-15.62-16.86-10.84,20.31L480.43,797Z" transform="translate(-61.23 -61.42)"/></g><path class="cls-6" d="M149,219.61q-22.16,2.88-26.24-28.55-4.07-31.25,18.17-34.13,10.66-1.38,17.41,6T167,185.38q2,15-2.72,23.94T149,219.61Zm-.88-6.79q7.2-.93,9.77-7.41t.94-19q-1.63-12.63-5.81-18.11a11.31,11.31,0,0,0-11.2-4.58q-14,1.83-10.85,26.31T148.09,212.82Z" transform="translate(-61.23 -61.42)"/><path class="cls-6" d="M187.8,207.83l-.5.06-.79,6-5.54.72-8.43-64.79,7.58-1,2,15.66c.3,2.25.59,5.4.9,9.45l.33,0q3.57-7.41,12.52-8.57a15.77,15.77,0,0,1,13.95,4.51q5.58,5.61,7,16.77t-2.51,18.13a15.74,15.74,0,0,1-12.31,8Q193.45,213.83,187.8,207.83Zm-2.24-17.16q1.23,9.45,4.65,13.1t9.75,2.81q11.32-1.47,9-19-2.25-17.25-13.66-15.76-6.45.84-8.73,5.12T185.56,190.67Z" transform="translate(-61.23 -61.42)"/><path class="cls-6" d="M233.76,205.66l-.9-6.91a38.11,38.11,0,0,0,15.87,1.57q11.45-1.48,10.57-8.23a5.3,5.3,0,0,0-2.57-3.86c-1.52-1-4.84-2-10-3.19q-10.17-2.35-13.09-5a10.87,10.87,0,0,1-3.44-6.82,10.32,10.32,0,0,1,3.48-9.49q4.23-3.83,12.43-4.9a38.82,38.82,0,0,1,15.77,1.08l-1.7,6.53a37.35,37.35,0,0,0-13.67-1.27q-9.83,1.29-9.11,6.82a4.82,4.82,0,0,0,2.63,3.79q2.31,1.25,10.24,3,9.2,2.07,12.5,4.79a10.83,10.83,0,0,1,3.88,7.23,11.59,11.59,0,0,1-3.6,10.44q-4.41,4.18-13.32,5.35Q239.42,207.85,233.76,205.66Z" transform="translate(-61.23 -61.42)"/><path class="cls-6" d="M318.41,190.37l.74,5.74a44,44,0,0,1-10.32,2.7q-15.07,2-16.93-12.36l-3.46-26.53-11.11,1.45-.51-3.91L287.67,154l1.65-12.37,4.37-.57,1.59,12.2,18.24-2.37.74,5.7L296,158.94l3.45,26.52q1.06,8.13,9.06,7.08A74,74,0,0,0,318.41,190.37Z" transform="translate(-61.23 -61.42)"/><path class="cls-6" d="M361.78,191.08,353.09,167l-4.62-13.38-.25,0-.89,14.26-2.42,25.38-7.87,1-15.23-44.51,6.74-.88,7,22.08q2.43,7.56,4.51,16.06l.25,0q.29-7.87.89-15.28l2.41-24.79,8-1,8.42,23.38q2.85,7.88,4.73,14.54l.25,0q0-10.24.37-16.69l1.31-23.17,6.58-.85L369.9,190Z" transform="translate(-61.23 -61.42)"/><path class="cls-6" d="M422,161.48l-32.23,4.19q2.37,15.57,16.36,13.76a38.68,38.68,0,0,0,15-5.17l.87,6.66A36.62,36.62,0,0,1,407.19,186q-10.2,1.34-17.13-4.1t-8.35-16.34q-1.45-11.07,3.35-18.28c3.21-4.81,7.95-7.62,14.26-8.44q8.82-1.15,14.82,3.74t7.2,14.18Zm-32.86-2L413,156.38q-1.65-12.69-13-11.22T389.09,159.49Z" transform="translate(-61.23 -61.42)"/><path class="cls-6" d="M447.63,139.51l-11.31.58-.67-5.12,18.78-2.45,5.18,39.77,14.76-1.07.67,5.12-36.56,4.76-.67-5.13L452,173.28Zm.61-25.32q4.41-.57,5,4.17a4.68,4.68,0,0,1-.84,3.78,4.53,4.53,0,0,1-2.95,1.58c-3,.39-4.67-1-5.08-4.2S445.27,114.58,448.24,114.19Z" transform="translate(-61.23 -61.42)"/><path class="cls-6" d="M518.39,170.7l-3.83-29.44q-1.41-10.83-11.32-9.54-12.8,1.67-10.63,18.24l3.08,23.69-7.57,1-5.95-45.73,6.12-.79,1.92,6,.42-.06q3.38-7.56,13.08-8.82,16.2-2.1,18.37,14.59L526,169.71Z" transform="translate(-61.23 -61.42)"/><g class="cls-2"><path class="cls-6" d="M351.48,338l-7.79,1-7-54.06-17.41,2.27-.89-6.83,42.56-5.54.89,6.83L344.44,284Z" transform="translate(-61.23 -61.42)"/><path class="cls-6" d="M411.5,284.75l-1.14,7.18a27.88,27.88,0,0,0-9.57-.66q-6.8.89-10,5.22t-2.23,11.62l3.21,24.65-7.58,1L378.26,288l6.16-.8,2,8.25.33,0a21.32,21.32,0,0,1,5.86-8,17.55,17.55,0,0,1,8.64-3.28A29.35,29.35,0,0,1,411.5,284.75Z" transform="translate(-61.23 -61.42)"/><path class="cls-6" d="M461.66,323.67l-2.37-6.13-.33,0a19.13,19.13,0,0,1-5.85,6.46,21,21,0,0,1-8.5,2.69c-4.52.59-8.23-.14-11.1-2.2s-4.6-5.23-5.16-9.53q-1.8-13.83,19.35-17.25l8.42-1.4-.38-2.87q-1.28-9.83-11.44-8.5a33.81,33.81,0,0,0-13.21,5.19l-3.37-5.37a36.55,36.55,0,0,1,15.43-6.07q9.45-1.23,14.15,1.84T463,291.64L467.11,323Zm-5-22.1L450,302.74q-8.12,1.39-11.24,4.07a7.61,7.61,0,0,0-2.53,7.25q1,7.41,9.29,6.33,6.12-.79,9.32-4.67t2.41-10Z" transform="translate(-61.23 -61.42)"/><path class="cls-6" d="M512.5,317.05l-3.83-29.44q-1.41-10.83-11.32-9.54-12.78,1.67-10.62,18.24L489.81,320l-7.58,1-6-45.72,6.12-.8,1.93,6,.42-.06q3.38-7.55,13.08-8.81,16.19-2.12,18.37,14.59l3.88,29.86Z" transform="translate(-61.23 -61.42)"/><path class="cls-6" d="M539.7,290.1l4.8-7.07,14.31-18.5,9.25-1.2-18,22.45,25.11,23.12-8.87,1.15-20.47-18.68-4.92,4.12,2.28,17.57-7.49,1-8.43-64.79,7.49-1L538.63,278l.9,12.12Z" transform="translate(-61.23 -61.42)"/></g><g class="cls-2"><path class="cls-7" d="M384.23,432.11l-.42.06q1,4.44,1.15,5.59l2.13,16.35-6.35.83-7.21-55.44,5.13-.66,1.61,5,.28,0A12.67,12.67,0,0,1,391,396.52a13.19,13.19,0,0,1,11.68,3.78q4.67,4.69,5.89,14t-2.11,15.18a14.25,14.25,0,0,1-22.24,2.59Zm-2.06-15.79.19,1.43q1,7.9,3.89,11t8.16,2.36q9.48-1.23,7.57-15.95-1.87-14.43-11.43-13.19c-3.54.46-5.94,1.82-7.22,4.06S381.66,411.68,382.17,416.32Z" transform="translate(-61.23 -61.42)"/><path class="cls-7" d="M448,428.74l-1.6-5-.35.05q-2.91,6.3-10.89,7.33-13.63,1.78-15.45-12.2l-3.25-25,6.34-.83L426,417.74q1.19,9.08,9.41,8,5.61-.74,7.77-4.29t1.2-10.95l-2.59-19.88,6.35-.82,5,38.28Z" transform="translate(-61.23 -61.42)"/><path class="cls-7" d="M473.23,391.64l-9.47.49-.56-4.29,15.72-2,4.33,33.3,12.37-.9.55,4.28-30.61,4-.55-4.29,11.9-2.26Zm.5-21.2c2.47-.32,3.87.85,4.22,3.5a3.88,3.88,0,0,1-.71,3.15,3.79,3.79,0,0,1-2.47,1.34c-2.48.32-3.9-.85-4.25-3.53S471.25,370.77,473.73,370.44Z" transform="translate(-61.23 -61.42)"/><path class="cls-7" d="M536.42,411.92l.63,4.81a37.06,37.06,0,0,1-8.64,2.26q-12.63,1.63-14.18-10.35l-2.89-22.21L502,387.64l-.43-3.27,9.09-2.92,1.38-10.36,3.66-.47,1.33,10.21,15.27-2,.62,4.78-15.27,2,2.89,22.2q.88,6.81,7.58,5.93A62.29,62.29,0,0,0,536.42,411.92Z" transform="translate(-61.23 -61.42)"/><path class="cls-7" d="M580.79,411.47l-30.06,3.91-.56-4.36,19.21-32.14-21.85,2.84L546.9,377l28.28-3.68.66,5.09L557,409.71l23.18-3Z" transform="translate(-61.23 -61.42)"/></g><g class="cls-2"><path class="cls-8" d="M276.27,396.15,271,384.79l-12.83,1.67-2.28,12.34-5,.65,7.64-40,5.1-.66,17.67,36.73ZM269,380.66,264.1,370q-1.44-3.11-2.39-5.7c-.13,1.78-.32,3.42-.58,4.95L259,382Z" transform="translate(-61.23 -61.42)"/><path class="cls-8" d="M290.57,390.59l-.31,0c.5,2.22.79,3.62.86,4.19l1.6,12.27-4.76.62-5.41-41.58,3.84-.5,1.21,3.78.21,0a9.52,9.52,0,0,1,7.85-5.48,9.91,9.91,0,0,1,8.76,2.83q3.49,3.52,4.41,10.53t-1.58,11.38a10.68,10.68,0,0,1-16.68,1.95ZM289,378.74l.14,1.08c.51,3.95,1.49,6.69,2.92,8.22s3.47,2.11,6.12,1.77q7.11-.93,5.67-12Q302.47,367,295.31,368q-4,.51-5.41,3T289,378.74Z" transform="translate(-61.23 -61.42)"/><path class="cls-8" d="M338.32,362.52l-10.18,1.32L331.41,389l-4.75.62-3.27-25.13-8.29,1.08-.38-2.88,8.18-1.94-.33-2.51q-.66-5,1.4-7.62t7.53-3.3a24.25,24.25,0,0,1,6.7.06l-.58,3.88a21.19,21.19,0,0,0-5.51,0q-3.21.42-4.2,1.88a6.56,6.56,0,0,0-.59,4.46l.36,2.72,10.17-1.32Z" transform="translate(-61.23 -61.42)"/><path class="cls-8" d="M373.33,369.85l-20.24,2.63q1.49,9.78,10.27,8.64a24.25,24.25,0,0,0,9.42-3.25l.54,4.19a22.93,22.93,0,0,1-9.26,3.19q-6.4.84-10.76-2.57t-5.24-10.26q-.9-7,2.11-11.48a12,12,0,0,1,8.95-5.3,11.68,11.68,0,0,1,9.3,2.35A13.18,13.18,0,0,1,373,366.9Zm-20.64-1.25,15-2q-1.05-8-8.15-7C354.73,360.22,352.46,363.22,352.69,368.6Z" transform="translate(-61.23 -61.42)"/><path class="cls-8" d="M387.66,344.08l-7.08.36-.41-3.19L392,339.72l4.8,36.95L406,376l.42,3.22-23,3-.42-3.22,8.93-1.69Z" transform="translate(-61.23 -61.42)"/><path class="cls-8" d="M436.85,371.26l.47,3.61a27.5,27.5,0,0,1-6.48,1.7q-9.46,1.23-10.64-7.77L418,352.15l-7,.91-.32-2.46,6.81-2.19,1-7.77,2.74-.35,1,7.66,11.45-1.49.47,3.58-11.45,1.49L425,368.18c.45,3.4,2.34,4.88,5.69,4.45A46.69,46.69,0,0,0,436.85,371.26Z" transform="translate(-61.23 -61.42)"/><path class="cls-8" d="M466.86,342.82l-.71,4.5a17.46,17.46,0,0,0-6-.41,8.75,8.75,0,0,0-6.26,3.27c-1.34,1.82-1.8,4.25-1.41,7.3l2,15.48-4.76.62L446,344.87l3.87-.51,1.26,5.18.21,0a13.36,13.36,0,0,1,3.68-5,10.92,10.92,0,0,1,5.43-2.06A18,18,0,0,1,466.86,342.82Z" transform="translate(-61.23 -61.42)"/><path class="cls-8" d="M498.36,367.25l-1.48-3.85-.21,0a12,12,0,0,1-3.68,4.05,13.08,13.08,0,0,1-5.33,1.69,9.53,9.53,0,0,1-7-1.38,8.23,8.23,0,0,1-3.23-6q-1.14-8.69,12.15-10.84l5.28-.87-.23-1.8q-.81-6.18-7.19-5.34a21.24,21.24,0,0,0-8.29,3.25l-2.12-3.36a23,23,0,0,1,9.69-3.82q5.94-.76,8.88,1.16c2,1.29,3.17,3.6,3.61,6.95l2.56,19.66Zm-3.11-13.87-4.21.73c-3.4.58-5.75,1.44-7.06,2.55a4.8,4.8,0,0,0-1.59,4.56c.41,3.1,2.35,4.42,5.84,4a8.69,8.69,0,0,0,5.85-2.93,7.85,7.85,0,0,0,1.51-6.3Z" transform="translate(-61.23 -61.42)"/><path class="cls-8" d="M530.29,363.1l-2.41-18.49q-.89-6.8-7.11-6-8,1-6.67,11.45L516,365l-4.76.62-3.74-28.71,3.85-.5,1.2,3.78.27,0q2.11-4.74,8.21-5.53,10.17-1.32,11.54,9.16L535,362.48Z" transform="translate(-61.23 -61.42)"/><path class="cls-8" d="M547.36,346.17l3-4.43,9-11.62,5.8-.76-11.3,14.1L569.64,358l-5.57.72L551.21,347l-3.09,2.58,1.44,11-4.71.61-5.29-40.68,4.7-.62,2.43,18.67.57,7.61Z" transform="translate(-61.23 -61.42)"/></g><g class="cls-2"><path class="cls-9" d="M821.75,530H826a25.23,25.23,0,0,1,1.56,9.44c0,5.44-1.73,9.59-5.17,12.48s-8.34,4.32-14.69,4.32q-9.12,0-14.45-4.72T788,538.6a21.35,21.35,0,0,1,2.26-10.1l4.12,2a17.73,17.73,0,0,0-2.06,8.05,11,11,0,0,0,4.18,9q4.18,3.38,11.33,3.38,7.56,0,11.53-3.17t4-9.25A31.81,31.81,0,0,0,821.75,530Z" transform="translate(-61.23 -61.42)"/><path class="cls-9" d="M786.18,510.52c0-1.87,1-2.8,3-2.8a2.93,2.93,0,0,1,2.28.83,2.85,2.85,0,0,1,.75,2q0,2.82-3,2.82C787.18,513.34,786.18,512.4,786.18,510.52Zm15.72,2.42-.56,7.09H798.1V508.14h25.18l.53-9.28h3.24V522h-3.24l-.53-9.07Z" transform="translate(-61.23 -61.42)"/><path class="cls-9" d="M823.17,471.15v.21a9.65,9.65,0,0,1,4.41,8.49,9.92,9.92,0,0,1-3.94,8.32q-3.95,3-11,3t-11.09-3a10.67,10.67,0,0,1,.25-16.8V471c-2.27.21-3.69.32-4.27.32H786v-4.8h41v3.88Zm-9.46.21h-1.08c-4,0-6.84.61-8.53,1.83s-2.55,3.17-2.55,5.84q0,7.17,11.13,7.18,10.92,0,10.92-7.23,0-4-2.34-5.76T813.71,471.36Z" transform="translate(-61.23 -61.42)"/><path class="cls-9" d="M798.76,434.47l4.37,1.29a17.44,17.44,0,0,0-1.18,5.91,8.71,8.71,0,0,0,2.44,6.63q2.43,2.34,7.05,2.34h15.61v4.79H798.1v-3.9l5.3-.58v-.21a13.26,13.26,0,0,1-4.48-4.3,11,11,0,0,1-1.35-5.64A18.29,18.29,0,0,1,798.76,434.47Z" transform="translate(-61.23 -61.42)"/><path class="cls-9" d="M813.5,401.09V421.5q9.88-.21,9.88-9.07a24.18,24.18,0,0,0-2-9.76h4.22a23,23,0,0,1,2,9.6,13.88,13.88,0,0,1-3.94,10.34q-3.95,3.87-10.85,3.87t-11.12-3.57a12.05,12.05,0,0,1-4.1-9.56,11.7,11.7,0,0,1,3.53-8.92,13.15,13.15,0,0,1,9.42-3.34Zm-3.91,20.3v-15.1q-8,0-8,7.17T809.59,421.39Z" transform="translate(-61.23 -61.42)"/></g><g class="cls-2"><path class="cls-10" d="M636.23,297.27l2,3.69a24.64,24.64,0,0,1-7.43,5.73q-7,3.8-13.19,1.33T607,297.34q-4.24-7.89-2.64-14.68t8.67-10.6a21,21,0,0,1,9.78-2.74l.14,4.51a17.48,17.48,0,0,0-7.91,2,10.84,10.84,0,0,0-5.88,7.82q-1,5.19,2.35,11.36,3.53,6.54,8.1,8.5c3.05,1.31,6.33,1,9.84-.87A31.36,31.36,0,0,0,636.23,297.27Z" transform="translate(-61.23 -61.42)"/><path class="cls-10" d="M641.72,272.19,635.33,275l-1.51-2.8,10.28-5.53,11.71,21.77,8.27-3.86,1.5,2.8-20,10.77-1.5-2.81,7.59-4.67Zm-5.21-14.72q2.41-1.29,3.81,1.3a2.88,2.88,0,0,1,.35,2.36,2.8,2.8,0,0,1-1.35,1.56q-2.45,1.32-3.85-1.31C634.54,259.65,634.88,258.35,636.51,257.47Z" transform="translate(-61.23 -61.42)"/><path class="cls-10" d="M687.74,271.15l-.19.1a9.45,9.45,0,0,1-5.29,7.75,9.7,9.7,0,0,1-9,.46q-4.44-2-7.73-8.11t-2.53-11a10.46,10.46,0,0,1,14.63-7.59l.27-.14c-1.23-1.87-2-3.05-2.25-3.55l-5.35-9.94,4.15-2.23,19.07,35.47-3.35,1.8Zm-4.59-8.09-.5-.93q-2.79-5.17-5.55-6.52c-1.85-.9-3.92-.73-6.23.51q-6.2,3.35-1,13,5.08,9.44,11.32,6.07,3.47-1.86,3.9-4.69C685.34,268.57,684.71,266.11,683.15,263.06Z" transform="translate(-61.23 -61.42)"/><path class="cls-10" d="M715.78,245.28l-17.64,9.49q4.79,8.44,12.44,4.33a24,24,0,0,0,7.5-6.27l2,3.64a22.68,22.68,0,0,1-7.37,6.18q-5.59,3-10.77,1.39t-8.4-7.57q-3.25-6.06-2.08-11.27a11.84,11.84,0,0,1,6.36-8,11.5,11.5,0,0,1,9.36-1.09,12.87,12.87,0,0,1,7.26,6.58Zm-19.36,6.06,13.06-7q-3.74-6.94-9.94-3.62T696.42,251.34Z" transform="translate(-61.23 -61.42)"/><path class="cls-10" d="M736.1,217.93l.91,4.38a16.87,16.87,0,0,0-5.65,1.72,8.57,8.57,0,0,0-4.6,5.19q-.88,3.19,1.26,7.18l7.26,13.5-4.15,2.23-13.46-25,3.37-1.81,3,4.31.18-.1a13.13,13.13,0,0,1,1.63-5.87,10.84,10.84,0,0,1,4.26-3.79A17.87,17.87,0,0,1,736.1,217.93Z" transform="translate(-61.23 -61.42)"/></g><g class="cls-2"><path class="cls-11" d="M149.08,256.52l11.08-1.44q6.9-.9,10.3.9c2.26,1.2,3.61,3.44,4,6.71a7.63,7.63,0,0,1-1.28,5.62,8.63,8.63,0,0,1-5,3.29l0,.25q8.53.27,9.48,7.52a10,10,0,0,1-2.19,8.25q-2.84,3.27-8.38,4l-13.27,1.72Zm6.74,15,7.16-.93q3.92-.51,5.54-2.13t1.21-4.82a4.94,4.94,0,0,0-2.49-4.08c-1.4-.7-3.49-.88-6.28-.51l-6.65.86Zm.52,3.93,1.72,13.29,7.73-1q7.85-1,6.94-7.92c-.56-4.27-3.55-6-9-5.34Z" transform="translate(-61.23 -61.42)"/><path class="cls-11" d="M191.92,264l-6.85.35-.4-3.1L196,259.73l3.12,24,8.93-.65.41,3.1-22.11,2.87L186,286l8.59-1.63Zm.36-15.31q2.67-.35,3,2.52a2.79,2.79,0,0,1-.51,2.28,2.68,2.68,0,0,1-1.78,1q-2.7.36-3.07-2.54C189.71,250,190.48,248.88,192.28,248.65Z" transform="translate(-61.23 -61.42)"/><path class="cls-11" d="M235.51,255.24l-.69,4.34a16.61,16.61,0,0,0-5.78-.4,8.37,8.37,0,0,0-6,3.15q-1.94,2.63-1.36,7l1.94,14.91-4.58.6-3.6-27.65,3.73-.48,1.21,5,.2,0a12.88,12.88,0,0,1,3.55-4.81,10.58,10.58,0,0,1,5.22-2A17.45,17.45,0,0,1,235.51,255.24Z" transform="translate(-61.23 -61.42)"/><path class="cls-11" d="M265.64,278.79,263.32,261q-.84-6.56-6.84-5.77-7.73,1-6.42,11l1.86,14.33-4.58.59-3.6-27.64,3.7-.49,1.16,3.64.26,0q2-4.56,7.91-5.33,9.8-1.27,11.1,8.82l2.35,18.05Z" transform="translate(-61.23 -61.42)"/><path class="cls-11" d="M300.16,261.14l-19.48,2.53q1.43,9.42,9.88,8.32a23.34,23.34,0,0,0,9.07-3.13l.53,4a22.23,22.23,0,0,1-8.92,3.08,13.29,13.29,0,0,1-10.36-2.48q-4.2-3.28-5.05-9.88t2-11.05a11.6,11.6,0,0,1,8.62-5.11,11.28,11.28,0,0,1,9,2.27,12.65,12.65,0,0,1,4.35,8.57Zm-19.87-1.21,14.43-1.87q-1-7.68-7.85-6.79T280.29,259.93Z" transform="translate(-61.23 -61.42)"/><path class="cls-11" d="M327.53,270.74l-2.32-17.8c-.56-4.37-2.85-6.29-6.84-5.77q-7.72,1-6.43,11l1.87,14.32-4.58.6-3.6-27.65,3.7-.48,1.16,3.64.26,0q2-4.57,7.9-5.33,9.8-1.28,11.11,8.82l2.35,18Z" transform="translate(-61.23 -61.42)"/><path class="cls-11" d="M356.61,267l-5.25-14.57-2.79-8.09-.15,0-.55,8.62-1.46,15.35-4.76.62L332.44,242l4.08-.53,4.25,13.35q1.46,4.57,2.72,9.71l.15,0q.18-4.75.54-9.23l1.46-15,4.86-.63,5.09,14.13c1.14,3.18,2.1,6.11,2.86,8.8l.15,0c0-4.13.06-7.5.22-10.09l.79-14,4-.52-2.07,28.39Z" transform="translate(-61.23 -61.42)"/><path class="cls-11" d="M393,249.06l-19.49,2.53q1.42,9.42,9.89,8.32a23.45,23.45,0,0,0,9.07-3.13l.52,4a22.18,22.18,0,0,1-8.92,3.08,13.3,13.3,0,0,1-10.36-2.48q-4.18-3.27-5-9.88t2-11.05a11.58,11.58,0,0,1,8.62-5.1,11.23,11.23,0,0,1,9,2.26,12.66,12.66,0,0,1,4.36,8.57Zm-19.88-1.2L387.55,246q-1-7.68-7.85-6.79T373.12,247.86Z" transform="translate(-61.23 -61.42)"/><path class="cls-11" d="M408.53,235.77l-6.85.36-.4-3.1,11.36-1.48,3.12,24,8.93-.65.41,3.09L403,260.92l-.4-3.1,8.59-1.63Zm.36-15.3q2.67-.36,3,2.52a2.79,2.79,0,0,1-.51,2.28,2.68,2.68,0,0,1-1.78,1c-1.8.23-2.82-.61-3.07-2.54S407.09,220.7,408.89,220.47Z" transform="translate(-61.23 -61.42)"/><path class="cls-11" d="M451.31,254.63,449,236.83q-.86-6.54-6.84-5.76-7.74,1-6.43,11l1.86,14.33L433,257l-3.59-27.65,3.7-.48,1.16,3.64.25,0q2-4.56,7.91-5.33,9.79-1.28,11.11,8.82L455.89,254Z" transform="translate(-61.23 -61.42)"/></g><g class="cls-2"><path class="cls-10" d="M536.82,735.42,527,736.69l3.15,24.2-4.58.59-3.15-24.19-8,1-.35-2.77,7.87-1.86-.32-2.42q-.63-4.86,1.35-7.35t7.25-3.17a23.3,23.3,0,0,1,6.46.06l-.57,3.73a20,20,0,0,0-5.3,0c-2.07.27-3.41.87-4,1.8a6.31,6.31,0,0,0-.57,4.3l.34,2.62,9.8-1.27Z" transform="translate(-61.23 -61.42)"/><path class="cls-10" d="M567.17,756.07l-1.43-3.7-.21,0A11.57,11.57,0,0,1,562,756.3a12.81,12.81,0,0,1-5.14,1.63,9.2,9.2,0,0,1-6.72-1.33,7.94,7.94,0,0,1-3.12-5.77q-1.08-8.36,11.7-10.43l5.09-.84-.22-1.74q-.78-5.94-6.92-5.14a20.46,20.46,0,0,0-8,3.14l-2-3.24A22.1,22.1,0,0,1,556,728.9q5.73-.74,8.56,1.12t3.47,6.69l2.46,18.93Zm-3-13.36-4,.71c-3.28.56-5.54,1.38-6.8,2.46a4.61,4.61,0,0,0-1.53,4.38q.59,4.49,5.62,3.83a8.35,8.35,0,0,0,5.63-2.82,7.54,7.54,0,0,0,1.46-6.06Z" transform="translate(-61.23 -61.42)"/><path class="cls-10" d="M601.49,738.45,582,741q1.43,9.42,9.89,8.32a23.45,23.45,0,0,0,9.07-3.13l.52,4a22.18,22.18,0,0,1-8.92,3.08,13.3,13.3,0,0,1-10.36-2.48q-4.19-3.28-5.05-9.88t2-11a11.62,11.62,0,0,1,8.62-5.11,11.24,11.24,0,0,1,9,2.27,12.66,12.66,0,0,1,4.36,8.57Zm-19.88-1.21L596,735.37q-1-7.68-7.85-6.79T581.61,737.24Z" transform="translate(-61.23 -61.42)"/><path class="cls-10" d="M629.76,720.81l-1,4.18a19.56,19.56,0,0,0-6.93-.55q-9.35,1.21-8,11.61,1.32,10.23,10.42,9a22.93,22.93,0,0,0,7.88-2.61l.52,4a20.3,20.3,0,0,1-8.08,2.61q-6.48.84-10.53-2.36t-4.94-10q-.92-7.08,2.25-11.25t9.79-5A24.26,24.26,0,0,1,629.76,720.81Z" transform="translate(-61.23 -61.42)"/><path class="cls-10" d="M663.38,730.39l-19.49,2.54q1.43,9.42,9.89,8.32a23.35,23.35,0,0,0,9.06-3.13l.53,4a22.18,22.18,0,0,1-8.92,3.08,13.34,13.34,0,0,1-10.36-2.48q-4.2-3.29-5.05-9.88t2-11.06a11.64,11.64,0,0,1,8.62-5.1,11.28,11.28,0,0,1,9,2.26,12.65,12.65,0,0,1,4.35,8.58Zm-19.88-1.2,14.43-1.88q-1-7.68-7.85-6.78T643.5,729.19Z" transform="translate(-61.23 -61.42)"/></g><g class="cls-2"><path class="cls-12" d="M197.35,734.85l-14.07-26.29L188,708l8.18,15.63a52,52,0,0,1,3.58,7.85l.15,0q0-1.12,1.48-8.51l3.88-17.2,4.76-.62-6.87,29Z" transform="translate(-61.23 -61.42)"/><path class="cls-12" d="M226.25,706.66l-6.84.35-.4-3.1,11.35-1.47,3.13,24,8.93-.65.4,3.1-22.1,2.88-.41-3.1,8.6-1.63Zm.37-15.31c1.77-.23,2.79.61,3,2.53a2.87,2.87,0,0,1-.51,2.28,2.79,2.79,0,0,1-1.78,1q-2.7.35-3.07-2.55T226.62,691.35Z" transform="translate(-61.23 -61.42)"/><path class="cls-12" d="M269.94,698.29l-1,4.18a19.36,19.36,0,0,0-6.93-.56q-9.35,1.22-8,11.61,1.32,10.23,10.42,9a22.93,22.93,0,0,0,7.88-2.61l.52,4a20,20,0,0,1-8.08,2.61c-4.32.56-7.82-.22-10.53-2.35s-4.34-5.48-4.94-10q-.92-7.08,2.25-11.25c2.11-2.79,5.38-4.46,9.79-5A24,24,0,0,1,269.94,698.29Z" transform="translate(-61.23 -61.42)"/><path class="cls-12" d="M303.56,707.87l-19.49,2.53q1.43,9.42,9.89,8.32a23.35,23.35,0,0,0,9.06-3.13l.53,4a22.18,22.18,0,0,1-8.92,3.08,13.3,13.3,0,0,1-10.36-2.48q-4.18-3.29-5-9.88t2-11.05a11.62,11.62,0,0,1,8.62-5.11,11.25,11.25,0,0,1,9,2.27,12.66,12.66,0,0,1,4.36,8.57Zm-19.88-1.21,14.43-1.87q-1-7.68-7.85-6.79T283.68,706.66Z" transform="translate(-61.23 -61.42)"/></g><g class="cls-2"><path class="cls-13" d="M174.66,331.79l-.29,0c.47,2.05.74,3.35.8,3.88l1.48,11.35-4.4.58-5-38.5,3.56-.46,1.12,3.5.19,0a8.82,8.82,0,0,1,7.27-5.08,9.19,9.19,0,0,1,8.11,2.63q3.24,3.26,4.08,9.74T190.11,330a9.9,9.9,0,0,1-15.45,1.8Zm-1.42-11,.13,1c.47,3.67,1.37,6.2,2.7,7.62s3.21,1.95,5.67,1.63q6.57-.85,5.25-11.07-1.31-10-7.94-9.16-3.68.48-5,2.82T173.24,320.82Z" transform="translate(-61.23 -61.42)"/><path class="cls-13" d="M211.46,330.92a11.15,11.15,0,0,1-9.1-2.65q-3.87-3.33-4.69-9.62t2-10.47a11.35,11.35,0,0,1,8.37-4.84,11.2,11.2,0,0,1,9.13,2.63q3.85,3.31,4.66,9.54.84,6.42-2,10.55A11.37,11.37,0,0,1,211.46,330.92Zm-.38-3.67q7.5-1,6.18-11.15T208.4,307q-7.49,1-6.18,11.05T211.08,327.25Z" transform="translate(-61.23 -61.42)"/><path class="cls-13" d="M250.6,321.64,251,325a26.11,26.11,0,0,1-6,1.57q-8.78,1.14-9.85-7.19l-2-15.42-6.46.84-.3-2.28,6.31-2,1-7.19,2.54-.33.93,7.1,10.6-1.38.43,3.31-10.6,1.38,2,15.42q.61,4.73,5.27,4.12A43.47,43.47,0,0,0,250.6,321.64Z" transform="translate(-61.23 -61.42)"/><path class="cls-13" d="M266.23,299.81l-6.58.34-.39-3,10.92-1.42,3,23.12,8.58-.62.39,3L260.9,324l-.39-3,8.27-1.57Zm.35-14.72q2.57-.33,2.92,2.43a2.71,2.71,0,0,1-.49,2.19,2.6,2.6,0,0,1-1.71.92c-1.73.23-2.71-.59-3-2.44S264.85,285.32,266.58,285.09Z" transform="translate(-61.23 -61.42)"/><path class="cls-13" d="M300.72,319.3a11.15,11.15,0,0,1-9.1-2.64q-3.87-3.33-4.68-9.62t2-10.48a11.38,11.38,0,0,1,8.37-4.83,11.17,11.17,0,0,1,9.13,2.63q3.85,3.31,4.66,9.54.84,6.41-2,10.55A11.39,11.39,0,0,1,300.72,319.3Zm-.38-3.67q7.5-1,6.18-11.14t-8.86-9.09q-7.49,1-6.17,11T300.34,315.63Z" transform="translate(-61.23 -61.42)"/></g><g class="cls-2"><path class="cls-8" d="M196.56,614l-3.34-7.15-8.08,1-1.44,7.77-3.12.41,4.8-25.2,3.21-.42,11.13,23.13Zm-13.44-29q1.57-.21,1.8,1.47c.14,1.13-.31,1.77-1.36,1.9s-1.66-.36-1.81-1.49S182.06,585.18,183.12,585.05ZM192,604.27l-3.1-6.7c-.61-1.3-1.11-2.5-1.51-3.59q-.12,1.68-.36,3.12l-1.37,8Zm-2.71-20c1.05-.13,1.65.36,1.8,1.48s-.31,1.76-1.36,1.9-1.66-.36-1.8-1.49A1.46,1.46,0,0,1,189.29,584.24Z" transform="translate(-61.23 -61.42)"/><path class="cls-8" d="M205.57,610.52l-.2,0c.31,1.39.5,2.28.54,2.64l1,7.72-3,.39-3.4-26.18,2.42-.31.76,2.38.13,0a6,6,0,0,1,4.94-3.46,6.24,6.24,0,0,1,5.51,1.79,13.66,13.66,0,0,1,1.79,13.8,6.72,6.72,0,0,1-10.5,1.22Zm-1-7.46.08.68c.33,2.49.94,4.22,1.84,5.17a4.19,4.19,0,0,0,3.85,1.12q4.49-.59,3.58-7.53t-5.4-6.23a4.28,4.28,0,0,0-3.41,1.92A8.24,8.24,0,0,0,204.6,603.06Z" transform="translate(-61.23 -61.42)"/><path class="cls-8" d="M225.8,607.89l-.2,0c.32,1.4.5,2.28.55,2.64l1,7.73-3,.39-3.4-26.18,2.42-.31.76,2.37h.13a6,6,0,0,1,4.94-3.46,6.23,6.23,0,0,1,5.52,1.79,13.61,13.61,0,0,1,1.78,13.79,6.71,6.71,0,0,1-10.5,1.23Zm-1-7.46.09.68q.48,3.74,1.83,5.17a4.25,4.25,0,0,0,3.86,1.12q4.47-.58,3.57-7.53t-5.4-6.23a4.24,4.24,0,0,0-3.41,1.91A8.37,8.37,0,0,0,224.83,600.43Z" transform="translate(-61.23 -61.42)"/><path class="cls-8" d="M257.67,597.46l-12.74,1.66q.94,6.15,6.47,5.44a15.24,15.24,0,0,0,5.93-2l.34,2.64a14.5,14.5,0,0,1-5.83,2,8.73,8.73,0,0,1-6.78-1.62,9.36,9.36,0,0,1-3.3-6.46,10.26,10.26,0,0,1,1.33-7.23,7.57,7.57,0,0,1,5.64-3.33,7.32,7.32,0,0,1,5.85,1.48,8.29,8.29,0,0,1,2.85,5.6Zm-13-.78,9.43-1.23q-.65-5-5.13-4.44T244.68,596.68Z" transform="translate(-61.23 -61.42)"/><path class="cls-8" d="M266.7,581.24l-4.46.23-.26-2,7.42-1,3,23.26,5.84-.42.26,2-14.47,1.89-.26-2,5.62-1.06Z" transform="translate(-61.23 -61.42)"/><path class="cls-8" d="M294.58,601.27l-3.43-9.54-1.83-5.28h-.1l-.35,5.64-1,10-3.11.41-6-17.6,2.67-.35,2.77,8.73c.64,2,1.24,4.11,1.78,6.35h.1q.12-3.12.35-6l1-9.8,3.17-.42,3.33,9.25c.75,2.08,1.38,4,1.87,5.75l.1,0c0-2.7,0-4.9.15-6.59l.51-9.16,2.6-.34-1.35,18.56Z" transform="translate(-61.23 -61.42)"/><path class="cls-8" d="M311.52,599.4a7.57,7.57,0,0,1-6.19-1.8,11.54,11.54,0,0,1-1.85-13.66,7.73,7.73,0,0,1,5.7-3.29,7.59,7.59,0,0,1,6.21,1.79,9.89,9.89,0,0,1,3.17,6.48,10.06,10.06,0,0,1-1.36,7.18A7.77,7.77,0,0,1,311.52,599.4Zm-.26-2.5q5.1-.66,4.2-7.58t-6-6.18q-5.08.68-4.19,7.51T311.26,596.9Z" transform="translate(-61.23 -61.42)"/><path class="cls-8" d="M328.53,580.88l-4.48.23-.26-2,7.42-1,2.05,15.72,5.84-.43.26,2-14.45,1.88-.27-2,5.62-1.06Zm.23-10c1.17-.15,1.83.4,2,1.65a1.8,1.8,0,0,1-.33,1.49,1.75,1.75,0,0,1-1.17.63c-1.17.15-1.84-.4-2-1.67S327.59,571,328.76,570.87Z" transform="translate(-61.23 -61.42)"/></g><g class="cls-2"><path class="cls-7" d="M480.15,247.18l-3.08.4-2.78-21.37-6.88.89-.35-2.7,16.83-2.19.35,2.7-6.87.9Z" transform="translate(-61.23 -61.42)"/><path class="cls-7" d="M503.88,226.12l-.45,2.84a11,11,0,0,0-3.78-.26,5.52,5.52,0,0,0-3.95,2.06,6.24,6.24,0,0,0-.88,4.6l1.27,9.74-3,.39-2.35-18.07,2.44-.32.79,3.26.13,0a8.48,8.48,0,0,1,2.32-3.14,6.84,6.84,0,0,1,3.41-1.3A11.42,11.42,0,0,1,503.88,226.12Z" transform="translate(-61.23 -61.42)"/><path class="cls-7" d="M523.71,241.51l-.93-2.43-.13,0a7.38,7.38,0,0,1-2.32,2.55,8.16,8.16,0,0,1-3.36,1.07,6,6,0,0,1-4.39-.87,5.25,5.25,0,0,1-2-3.77q-.71-5.46,7.66-6.82l3.32-.55-.15-1.13q-.5-3.9-4.52-3.37a13.38,13.38,0,0,0-5.22,2.06l-1.33-2.13a14.42,14.42,0,0,1,6.1-2.4q3.74-.48,5.59.73c1.24.81,2,2.27,2.27,4.38l1.61,12.38Zm-2-8.74-2.66.46a9.62,9.62,0,0,0-4.44,1.61,3,3,0,0,0-1,2.87c.25,1.95,1.48,2.79,3.67,2.5a5.46,5.46,0,0,0,3.69-1.84,5,5,0,0,0,1-4Z" transform="translate(-61.23 -61.42)"/><path class="cls-7" d="M543.81,238.89l-1.51-11.64q-.56-4.27-4.47-3.77-5.05.66-4.21,7.21l1.22,9.37-3,.39-2.36-18.08,2.42-.31.77,2.38.16,0a6,6,0,0,1,5.17-3.49q6.4-.83,7.27,5.77l1.53,11.8Z" transform="translate(-61.23 -61.42)"/><path class="cls-7" d="M564.64,218.45l-.68,2.74a13,13,0,0,0-4.53-.37q-6.1.8-5.23,7.6t6.82,5.91a15.25,15.25,0,0,0,5.15-1.71l.34,2.63a13.14,13.14,0,0,1-5.28,1.71,8.81,8.81,0,0,1-6.89-1.54q-2.64-2.08-3.23-6.57t1.47-7.35a9.12,9.12,0,0,1,6.41-3.3A15.91,15.91,0,0,1,564.64,218.45Z" transform="translate(-61.23 -61.42)"/><path class="cls-7" d="M574.8,225.6l1.9-2.79,5.66-7.31L586,215l-7.11,8.88,9.92,9.14-3.5.45-8.1-7.38-1.94,1.62.9,7-3,.39-3.34-25.62,3-.38,1.53,11.75.35,4.79Z" transform="translate(-61.23 -61.42)"/></g><g class="cls-2"><path class="cls-12" d="M818.61,378.41h2.61a15.52,15.52,0,0,1,.95,5.77c0,3.31-1,5.86-3.16,7.62s-5.1,2.64-9,2.64q-5.58,0-8.83-2.88a10,10,0,0,1-3.26-7.88,13,13,0,0,1,1.39-6.18l2.51,1.26a10.8,10.8,0,0,0-1.26,4.92,6.7,6.7,0,0,0,2.56,5.52,10.67,10.67,0,0,0,6.92,2.07q4.62,0,7-1.94a6.81,6.81,0,0,0,2.42-5.65A19.44,19.44,0,0,0,818.61,378.41Z" transform="translate(-61.23 -61.42)"/><path class="cls-12" d="M804.15,375.39v-3l10.54-4.22a19.1,19.1,0,0,1,4.67-1.43v-.1a34,34,0,0,1-4.7-1.45l-10.51-3.85v-3l20,7.65a11.88,11.88,0,0,1,4.21,2.51,5.43,5.43,0,0,1,1.41,4,13.44,13.44,0,0,1-.27,2.7h-2.34a11.34,11.34,0,0,0,.2-2.19,3.9,3.9,0,0,0-.66-2.41,5.68,5.68,0,0,0-2.28-1.54L822,368Z" transform="translate(-61.23 -61.42)"/><path class="cls-12" d="M819.48,342.46v.13a5.9,5.9,0,0,1,2.69,5.19,6,6,0,0,1-2.41,5.08,13.27,13.27,0,0,1-13.5,0,6.51,6.51,0,0,1,.15-10.26v-.2c-1.39.13-2.26.2-2.61.2h-7v-2.94h25.08V342Zm-5.79.13H813c-2.44,0-4.17.37-5.21,1.12a4.08,4.08,0,0,0-1.56,3.57q0,4.38,6.8,4.38t6.67-4.42a4.13,4.13,0,0,0-1.42-3.52A8.08,8.08,0,0,0,813.69,342.59Z" transform="translate(-61.23 -61.42)"/><path class="cls-12" d="M813.56,319.45v12.47c4-.09,6.05-1.93,6.05-5.54a14.69,14.69,0,0,0-1.23-6H821a14,14,0,0,1,1.21,5.86,8.46,8.46,0,0,1-2.41,6.32,9.06,9.06,0,0,1-6.63,2.37,10,10,0,0,1-6.79-2.19,7.35,7.35,0,0,1-2.51-5.84,7.13,7.13,0,0,1,2.16-5.45,8,8,0,0,1,5.75-2Zm-2.38,12.41v-9.24q-4.92,0-4.92,4.39T811.18,331.86Z" transform="translate(-61.23 -61.42)"/><path class="cls-12" d="M804.56,300.24l2.67.79a10.69,10.69,0,0,0-.72,3.61,5.31,5.31,0,0,0,1.49,4.05,6,6,0,0,0,4.31,1.43h9.54v2.93h-17.7v-2.38l3.24-.36v-.13a8.15,8.15,0,0,1-2.74-2.62,6.83,6.83,0,0,1-.82-3.45A11,11,0,0,1,804.56,300.24Z" transform="translate(-61.23 -61.42)"/></g><g class="cls-2"><path class="cls-14" d="M526.58,664.72l3.18-.41L525,688.68l-3,.39-10.83-22.35,3.14-.4,6.64,14.2q.91,1.93,2.1,5.15c.13-1.59.39-3.46.78-5.63Z" transform="translate(-61.23 -61.42)"/><path class="cls-14" d="M540,671.23l-4.35.22-.25-2,7.2-.94,2,15.26,5.67-.41.25,2-14,1.83-.25-2,5.45-1Zm.23-9.71c1.12-.15,1.77.38,1.93,1.6a1.76,1.76,0,0,1-.33,1.44,1.66,1.66,0,0,1-1.13.61c-1.14.15-1.79-.39-2-1.61S539.08,661.66,540.22,661.52Z" transform="translate(-61.23 -61.42)"/><path class="cls-14" d="M569.41,674.55,557,676.16c.6,4,2.7,5.74,6.27,5.28a14.7,14.7,0,0,0,5.76-2l.33,2.56a14.13,14.13,0,0,1-5.66,2,8.44,8.44,0,0,1-6.57-1.58,9.06,9.06,0,0,1-3.21-6.27,9.94,9.94,0,0,1,1.29-7,7.33,7.33,0,0,1,5.47-3.24,7.14,7.14,0,0,1,5.69,1.43,8.08,8.08,0,0,1,2.76,5.45Zm-12.62-.76L566,672.6q-.63-4.87-5-4.31T556.79,673.79Z" transform="translate(-61.23 -61.42)"/><path class="cls-14" d="M588.59,678l.28,2.21a17,17,0,0,1-4,1q-5.77.75-6.5-4.74l-1.32-10.18-4.27.55-.19-1.5,4.16-1.34.63-4.74,1.68-.22.61,4.68,7-.91L587,665l-7,.91,1.32,10.18c.27,2.08,1.43,3,3.47,2.72A28.29,28.29,0,0,0,588.59,678Z" transform="translate(-61.23 -61.42)"/><path class="cls-14" d="M608.92,677.76l-13.77,1.8-.26-2,8.8-14.73-10,1.3-.28-2.19,13-1.68.3,2.33L598,677l10.62-1.39Z" transform="translate(-61.23 -61.42)"/></g><g class="cls-2"><path class="cls-15" d="M345.08,709.47l-3.24-6.94-7.85,1-1.39,7.54-3,.39L334.23,687l3.11-.4,10.81,22.45ZM332,681.35c1-.14,1.6.34,1.74,1.43s-.29,1.71-1.32,1.84-1.6-.35-1.74-1.44A1.41,1.41,0,0,1,332,681.35ZM340.65,700l-3-6.5c-.59-1.27-1.07-2.43-1.46-3.48a28.77,28.77,0,0,1-.36,3l-1.33,7.76ZM338,680.57c1-.14,1.6.34,1.75,1.43s-.3,1.71-1.32,1.84-1.61-.35-1.75-1.44S337,680.7,338,680.57Z" transform="translate(-61.23 -61.42)"/><path class="cls-15" d="M353.82,706.07l-.19,0-.31,2.3-2.12.28L348,683.81l2.91-.38.78,6c.12.86.23,2.07.35,3.62h.12a5.77,5.77,0,0,1,4.81-3.29,6.05,6.05,0,0,1,5.35,1.73,10.81,10.81,0,0,1,2.7,6.43,10.94,10.94,0,0,1-1,7,6.52,6.52,0,0,1-10.19,1.19Zm-.86-6.58q.48,3.63,1.78,5a4.11,4.11,0,0,0,3.74,1.08q4.35-.57,3.47-7.31t-5.24-6a4.09,4.09,0,0,0-3.35,2Q352.49,695.85,353,699.49Z" transform="translate(-61.23 -61.42)"/><path class="cls-15" d="M373.46,703.51l-.2,0-.3,2.3-2.12.27-3.24-24.86,2.91-.38.78,6c.11.86.23,2.07.34,3.63l.13,0a5.79,5.79,0,0,1,4.81-3.29,6.05,6.05,0,0,1,5.35,1.73,13.3,13.3,0,0,1,1.73,13.4,6.52,6.52,0,0,1-10.19,1.18Zm-.86-6.58c.31,2.42.91,4.09,1.78,5a4.11,4.11,0,0,0,3.74,1.08q4.35-.57,3.47-7.31t-5.24-6.05a4.08,4.08,0,0,0-3.35,2C372.42,692.74,372.28,694.5,372.6,696.93Z" transform="translate(-61.23 -61.42)"/><path class="cls-15" d="M404.39,693.4,392,695q.9,6,6.27,5.28a14.85,14.85,0,0,0,5.76-2l.33,2.55a14,14,0,0,1-5.66,2,8.51,8.51,0,0,1-6.58-1.57A9.05,9.05,0,0,1,389,695a10,10,0,0,1,1.29-7,7.39,7.39,0,0,1,5.47-3.24,7.15,7.15,0,0,1,5.68,1.44,8,8,0,0,1,2.77,5.44Zm-12.61-.77,9.16-1.19q-.65-4.87-5-4.31C393,687.51,391.64,689.35,391.78,692.63Z" transform="translate(-61.23 -61.42)"/><path class="cls-15" d="M413.15,677.65l-4.33.22-.25-2,7.21-.94,2.93,22.58,5.67-.41.26,2-14.05,1.83-.26-2,5.46-1Z" transform="translate(-61.23 -61.42)"/><path class="cls-15" d="M440.21,697.09l-3.33-9.25-1.77-5.14-.1,0-.34,5.47-.93,9.74-3,.39-5.84-17.08,2.59-.34,2.69,8.48c.62,1.93,1.2,4,1.73,6.16h.1c.07-2,.18-4,.34-5.87l.92-9.51,3.08-.4,3.24,9c.72,2,1.33,3.88,1.81,5.58h.1q0-3.93.14-6.4l.5-8.89,2.52-.33-1.31,18Z" transform="translate(-61.23 -61.42)"/><path class="cls-15" d="M456.65,695.27a7.35,7.35,0,0,1-6-1.74,11.18,11.18,0,0,1-1.79-13.26,7.48,7.48,0,0,1,5.52-3.19,7.39,7.39,0,0,1,6,1.73,9.63,9.63,0,0,1,3.08,6.3,9.8,9.8,0,0,1-1.32,7A7.5,7.5,0,0,1,456.65,695.27Zm-.25-2.42q5-.65,4.08-7.35t-5.85-6q-4.94.64-4.07,7.29T456.4,692.85Z" transform="translate(-61.23 -61.42)"/><path class="cls-15" d="M473.16,677.3l-4.34.22-.26-2,7.21-.94,2,15.26,5.67-.41.26,2-14,1.83-.26-2,5.46-1Zm.23-9.72c1.13-.14,1.78.39,1.93,1.61a1.79,1.79,0,0,1-.32,1.44,1.72,1.72,0,0,1-1.13.61c-1.14.15-1.79-.39-1.95-1.61S472.25,667.73,473.39,667.58Z" transform="translate(-61.23 -61.42)"/></g><g class="cls-2"><path class="cls-16" d="M222.94,147.16l-7.11-19.87h-.12c.56,2.81.93,5,1.13,6.45l1.82,14-2.42.31-3-23.36,4-.51,6.44,18.53h.1l1.51-19.57,4-.52,3,23.36-2.44.32L228,132.09q-.21-1.64-.59-6.28l-.13,0-1.86,21Z" transform="translate(-61.23 -61.42)"/><path class="cls-16" d="M243.86,144.76a7.35,7.35,0,0,1-6-1.74,11.22,11.22,0,0,1-1.79-13.26,7.48,7.48,0,0,1,5.52-3.19,7.38,7.38,0,0,1,6,1.73,9.58,9.58,0,0,1,3.08,6.3,9.75,9.75,0,0,1-1.32,7A7.5,7.5,0,0,1,243.86,144.76Zm-.25-2.42q5-.65,4.08-7.35t-5.85-6q-4.93.64-4.07,7.29T243.61,142.34Z" transform="translate(-61.23 -61.42)"/><path class="cls-16" d="M256.85,142l-.34-2.65a14.69,14.69,0,0,0,6.09.61c2.93-.39,4.28-1.44,4.06-3.17a2.06,2.06,0,0,0-1-1.48,13.92,13.92,0,0,0-3.83-1.22q-3.91-.9-5-1.94a4.18,4.18,0,0,1-1.33-2.61,4,4,0,0,1,1.34-3.65A8.66,8.66,0,0,1,261.6,124a14.91,14.91,0,0,1,6,.42l-.65,2.5a14.38,14.38,0,0,0-5.25-.48c-2.51.32-3.68,1.2-3.49,2.61a1.84,1.84,0,0,0,1,1.46,17.89,17.89,0,0,0,3.92,1.13,12.34,12.34,0,0,1,4.8,1.84,4.17,4.17,0,0,1,1.49,2.77,4.43,4.43,0,0,1-1.38,4,8.89,8.89,0,0,1-5.11,2.05A12.92,12.92,0,0,1,256.85,142Z" transform="translate(-61.23 -61.42)"/><path class="cls-16" d="M288.1,121.47l-.66,2.66a12.42,12.42,0,0,0-4.4-.36q-5.93.78-5.07,7.38t6.61,5.73a14.59,14.59,0,0,0,5-1.66l.34,2.56a12.77,12.77,0,0,1-5.13,1.66,8.53,8.53,0,0,1-6.68-1.5c-1.72-1.35-2.76-3.47-3.14-6.37s.09-5.38,1.43-7.14a8.82,8.82,0,0,1,6.21-3.2A15.48,15.48,0,0,1,288.1,121.47Z" transform="translate(-61.23 -61.42)"/><path class="cls-16" d="M307.16,136.2l-1.47-11.29q-.54-4.16-4.34-3.66c-3.27.42-4.63,2.76-4.08,7l1.18,9.1-2.91.37-3.23-24.86,2.91-.38,1,7.39.17,2.31.16,0a5.86,5.86,0,0,1,5-3.38q6.21-.81,7.05,5.6l1.49,11.45Z" transform="translate(-61.23 -61.42)"/><path class="cls-16" d="M328.61,131l.29,2.21a16.55,16.55,0,0,1-4,1q-5.79.76-6.5-4.74l-1.32-10.18-4.27.56-.2-1.51,4.17-1.33.63-4.75,1.68-.22.61,4.69,7-.92L327,118l-7,.91,1.33,10.18q.4,3.12,3.47,2.72A28.19,28.19,0,0,0,328.61,131Z" transform="translate(-61.23 -61.42)"/></g><g class="cls-2"><path class="cls-17" d="M215.17,804.33l3.18-.42-4.77,24.38-3,.39-10.82-22.35,3.13-.41,6.64,14.2q.92,1.95,2.1,5.16.2-2.38.78-5.63Z" transform="translate(-61.23 -61.42)"/><path class="cls-17" d="M228.58,810.84l-4.34.22-.26-2,7.21-.94,2,15.26,5.67-.41.26,2-14,1.83-.26-2,5.46-1Zm.23-9.72c1.13-.14,1.77.39,1.93,1.6a1.82,1.82,0,0,1-.32,1.45,1.74,1.74,0,0,1-1.13.61c-1.14.15-1.79-.39-1.95-1.61S227.67,801.27,228.81,801.12Z" transform="translate(-61.23 -61.42)"/><path class="cls-17" d="M258,814.16l-12.37,1.61q.92,6,6.28,5.27a14.8,14.8,0,0,0,5.75-2l.34,2.56a14.06,14.06,0,0,1-5.67,2,8.45,8.45,0,0,1-6.57-1.57,9.05,9.05,0,0,1-3.2-6.27,10,10,0,0,1,1.28-7,7.37,7.37,0,0,1,5.47-3.23,7.13,7.13,0,0,1,5.69,1.43,8,8,0,0,1,2.76,5.44Zm-12.61-.76,9.15-1.2c-.42-3.24-2.08-4.68-5-4.3S245.24,810.11,245.39,813.4Z" transform="translate(-61.23 -61.42)"/><path class="cls-17" d="M277.88,819.93l-13.78,1.79-.26-2L272.65,805l-10,1.3-.28-2.19,13-1.68.3,2.33L267,819.12l10.63-1.38Z" transform="translate(-61.23 -61.42)"/><path class="cls-17" d="M297.27,809.05l-12.36,1.61q.9,6,6.27,5.27a14.69,14.69,0,0,0,5.76-2l.33,2.56a14,14,0,0,1-5.66,2,8.44,8.44,0,0,1-6.57-1.57,9,9,0,0,1-3.21-6.27,10,10,0,0,1,1.29-7,7.35,7.35,0,0,1,5.47-3.23,7.14,7.14,0,0,1,5.69,1.43,8.06,8.06,0,0,1,2.76,5.44Zm-12.61-.76,9.16-1.2q-.63-4.87-5-4.3T284.66,808.29Z" transform="translate(-61.23 -61.42)"/></g><g class="cls-2"><path class="cls-8" d="M723.09,605.23l-2.84.6-4.68-22.36,12.86-2.69.53,2.51-10,2.09,1.65,7.89,9.44-2,.52,2.51-9.43,2Z" transform="translate(-61.23 -61.42)"/><path class="cls-8" d="M740.54,586.36l-4.19.54L736,585l6.9-1.45,3,14.61,5.45-.82.39,1.88-13.42,2.81-.4-1.88,5.2-1.41ZM740,577c1.08-.23,1.74.24,2,1.4a1.72,1.72,0,0,1-.2,1.43,1.7,1.7,0,0,1-1.05.67c-1.09.23-1.76-.24-2-1.42A1.52,1.52,0,0,1,740,577Z" transform="translate(-61.23 -61.42)"/><path class="cls-8" d="M769.23,587.38l-11.84,2.48q1.32,5.71,6.46,4.63a14.29,14.29,0,0,0,5.42-2.34l.51,2.44a13.75,13.75,0,0,1-5.33,2.32,8.2,8.2,0,0,1-6.47-1,8.77,8.77,0,0,1-3.57-5.82,9.71,9.71,0,0,1,.73-6.88,7.16,7.16,0,0,1,5-3.54,6.93,6.93,0,0,1,5.61,1,7.8,7.8,0,0,1,3.08,5.06Zm-12.25.2,8.76-1.83c-.65-3.11-2.36-4.37-5.13-3.8S756.59,584.42,757,587.58Z" transform="translate(-61.23 -61.42)"/><path class="cls-8" d="M788,589.26l.44,2.11a16.25,16.25,0,0,1-3.75,1.3q-5.55,1.16-6.64-4.1l-2-9.75-4.08.86-.3-1.44,3.92-1.6.26-4.64,1.61-.33.94,4.48,6.7-1.4.43,2.09-6.69,1.4,2,9.74c.42,2,1.6,2.78,3.56,2.37A27.78,27.78,0,0,0,788,589.26Z" transform="translate(-61.23 -61.42)"/><path class="cls-8" d="M807.67,587.55l-13.18,2.76-.4-1.91,7.42-14.9-9.59,2-.44-2.09,12.4-2.59.47,2.23-7.29,14.53,10.17-2.12Z" transform="translate(-61.23 -61.42)"/></g><g class="cls-2"><path class="cls-15" d="M149.14,418.67l0,.18q2-.44,2.49-.51l7.27-.94.36,2.82-24.63,3.2-.3-2.28,2.24-.71,0-.13a5.65,5.65,0,0,1-3.25-4.65,5.88,5.88,0,0,1,1.68-5.19,10.53,10.53,0,0,1,6.24-2.61,10.67,10.67,0,0,1,6.75.93,6.33,6.33,0,0,1,1.15,9.89Zm-7,.91.64-.08c2.34-.31,4-.88,4.87-1.73a4,4,0,0,0,1.05-3.63q-.56-4.22-7.09-3.36t-5.86,5.08a4,4,0,0,0,1.8,3.21A7.78,7.78,0,0,0,142.12,419.58Z" transform="translate(-61.23 -61.42)"/><path class="cls-15" d="M124.21,397.93c-.14-1.09.37-1.72,1.55-1.87a1.61,1.61,0,0,1,2,1.41c.14,1.1-.38,1.73-1.57,1.89S124.35,399,124.21,397.93Zm9.42.23.22,4.21-1.91.24-.91-7,14.8-1.92-.4-5.49,1.9-.25,1.78,13.6-1.91.25-1-5.29Z" transform="translate(-61.23 -61.42)"/><path class="cls-15" d="M128.26,371.33l2.68.42a10.18,10.18,0,0,0-.25,3.56,5.19,5.19,0,0,0,1.94,3.71,5.79,5.79,0,0,0,4.32.83l9.18-1.19.36,2.82-17,2.21-.3-2.29,3.07-.74v-.13a7.88,7.88,0,0,1-3-2.18,6.54,6.54,0,0,1-1.22-3.21A10.77,10.77,0,0,1,128.26,371.33Z" transform="translate(-61.23 -61.42)"/><path class="cls-15" d="M142.74,352.66l-2.28.88,0,.13a7.14,7.14,0,0,1,2.4,2.17,7.74,7.74,0,0,1,1,3.16,5.66,5.66,0,0,1-.81,4.14,4.92,4.92,0,0,1-3.55,1.92q-5.15.66-6.42-7.2l-.52-3.14-1.07.14q-3.66.48-3.16,4.26a12.48,12.48,0,0,0,1.93,4.92l-2,1.25a13.63,13.63,0,0,1-2.26-5.74c-.3-2.35-.07-4.1.69-5.27a5.45,5.45,0,0,1,4.12-2.13l11.65-1.52Zm-8.22,1.84L135,357a9,9,0,0,0,1.51,4.18,2.82,2.82,0,0,0,2.7.94q2.76-.36,2.35-3.45a5.11,5.11,0,0,0-1.73-3.47,4.65,4.65,0,0,0-3.74-.9Z" transform="translate(-61.23 -61.42)"/><path class="cls-15" d="M137.69,332l2.14-.27a16.51,16.51,0,0,1,1,3.84q.73,5.61-4.6,6.3l-9.87,1.28.54,4.14-1.46.19-1.3-4-4.6-.61-.21-1.63,4.54-.59L123,333.8l2.12-.27.88,6.78,9.87-1.28c2-.26,2.9-1.39,2.64-3.37A29.31,29.31,0,0,0,137.69,332Z" transform="translate(-61.23 -61.42)"/><path class="cls-15" d="M114.3,321.76c-.14-1.09.37-1.72,1.55-1.87a1.77,1.77,0,0,1,1.41.31,1.72,1.72,0,0,1,.59,1.1c.14,1.1-.38,1.73-1.57,1.89S114.44,322.87,114.3,321.76Zm9.42.22.22,4.22-1.91.24-.91-7,14.8-1.92-.4-5.49,1.9-.25,1.77,13.6-1.9.25-1-5.29Z" transform="translate(-61.23 -61.42)"/><path class="cls-15" d="M135.26,295.12l-2.23.71,0,.15a5.7,5.7,0,0,1,3.26,4.84q.8,6.06-5.42,6.87l-11.11,1.45-.37-2.82,11-1.43c2.68-.35,3.87-1.74,3.55-4.18a4.44,4.44,0,0,0-1.91-3.46c-1-.64-2.68-.81-4.87-.53l-8.83,1.15-.36-2.82,17-2.21Z" transform="translate(-61.23 -61.42)"/><path class="cls-15" d="M132.67,275.22l-11,1.43a8.21,8.21,0,0,0-3.09.82,1.4,1.4,0,0,0-.7,1.48,2,2,0,0,0,1.54,1.79,10.85,10.85,0,0,0,4.38.06l9.39-1.23.33,2.5-11,1.42q-4,.52-3.77,2.47a1.91,1.91,0,0,0,1.47,1.69,14.09,14.09,0,0,0,5-.08l8.81-1.15.33,2.51-17,2.22-.26-2,2.24-.72,0-.15c-1.82-.47-2.83-1.39-3-2.78-.22-1.68.58-2.91,2.39-3.67v-.09q-3-.81-3.26-3a3.17,3.17,0,0,1,1.06-3.07,9.44,9.44,0,0,1,4.66-1.52l11.11-1.45Z" transform="translate(-61.23 -61.42)"/></g><g class="cls-2"><path class="cls-12" d="M349.74,121.7l-.15,0c.24,1.07.38,1.74.42,2l.76,5.9-2.29.3-2.6-20,1.85-.24.58,1.82h.1a4.58,4.58,0,0,1,3.78-2.64,4.77,4.77,0,0,1,4.22,1.36,10.45,10.45,0,0,1,1.36,10.55,5.15,5.15,0,0,1-8,.94ZM349,116l.07.51a7.14,7.14,0,0,0,1.4,4,3.23,3.23,0,0,0,2.95.85q3.42-.43,2.73-5.76T352,110.8a3.26,3.26,0,0,0-2.6,1.47A6.23,6.23,0,0,0,349,116Z" transform="translate(-61.23 -61.42)"/><path class="cls-12" d="M368.87,121.25a5.83,5.83,0,0,1-4.73-1.38,8.86,8.86,0,0,1-1.41-10.45,5.9,5.9,0,0,1,4.35-2.51,5.83,5.83,0,0,1,4.75,1.36,7.54,7.54,0,0,1,2.43,5,7.68,7.68,0,0,1-1,5.49A6,6,0,0,1,368.87,121.25Zm-.2-1.91q3.91-.51,3.22-5.8t-4.61-4.72c-2.59.33-3.66,2.25-3.21,5.74S366.06,119.68,368.67,119.34Z" transform="translate(-61.23 -61.42)"/><path class="cls-12" d="M388.93,118.38l-1.16-8.9a6.89,6.89,0,0,0-.66-2.51,1.18,1.18,0,0,0-1.21-.58,1.69,1.69,0,0,0-1.46,1.26,9,9,0,0,0,0,3.56l1,7.63-2,.26-1.16-8.9c-.29-2.18-.95-3.2-2-3.07a1.57,1.57,0,0,0-1.38,1.2,11.47,11.47,0,0,0,.07,4.07l.93,7.16-2,.27L376,106l1.6-.21.58,1.82.13,0c.38-1.48,1.13-2.3,2.25-2.44a2.68,2.68,0,0,1,3,1.94h.08c.44-1.61,1.26-2.5,2.46-2.65a2.58,2.58,0,0,1,2.49.86,7.71,7.71,0,0,1,1.24,3.79l1.17,9Z" transform="translate(-61.23 -61.42)"/><path class="cls-12" d="M403.37,116.5l-.71-1.85h-.1a5.67,5.67,0,0,1-1.77,2,6.28,6.28,0,0,1-2.57.82,4.63,4.63,0,0,1-3.36-.67,4,4,0,0,1-1.56-2.88c-.36-2.79,1.59-4.52,5.85-5.22l2.55-.42-.12-.87c-.26-2-1.41-2.83-3.46-2.57a10.32,10.32,0,0,0-4,1.57l-1-1.62a11,11,0,0,1,4.67-1.83,6.33,6.33,0,0,1,4.27.55,4.43,4.43,0,0,1,1.74,3.35l1.23,9.47Zm-1.49-6.68-2,.35a7.4,7.4,0,0,0-3.4,1.23,2.32,2.32,0,0,0-.77,2.2c.2,1.49,1.13,2.13,2.81,1.91a4.17,4.17,0,0,0,2.82-1.41,3.77,3.77,0,0,0,.73-3Z" transform="translate(-61.23 -61.42)"/><path class="cls-12" d="M420.17,112.39l.23,1.74a13.86,13.86,0,0,1-3.12.82c-3,.39-4.75-.85-5.12-3.74l-1.05-8-3.36.44-.15-1.19,3.28-1,.5-3.74,1.32-.17.48,3.69,5.51-.72.23,1.72-5.52.72,1.05,8a2.16,2.16,0,0,0,2.73,2.14A21.79,21.79,0,0,0,420.17,112.39Z" transform="translate(-61.23 -61.42)"/><path class="cls-12" d="M428.3,101l-3.42.18-.21-1.55,5.68-.74,1.57,12,4.46-.33.2,1.55-11.05,1.44-.2-1.55,4.29-.82Zm.18-7.65c.89-.12,1.4.3,1.52,1.26a1.39,1.39,0,0,1-.26,1.14,1.3,1.3,0,0,1-.89.48c-.89.12-1.41-.3-1.53-1.27A1.24,1.24,0,0,1,428.48,93.39Z" transform="translate(-61.23 -61.42)"/><path class="cls-12" d="M450.13,110.42l-.58-1.81-.13,0a4.65,4.65,0,0,1-3.93,2.65q-4.92.63-5.58-4.41l-1.17-9,2.29-.3,1.16,8.9q.42,3.28,3.39,2.89a3.58,3.58,0,0,0,2.81-1.55,6.24,6.24,0,0,0,.43-4l-.93-7.18,2.29-.3,1.8,13.83Z" transform="translate(-61.23 -61.42)"/><path class="cls-12" d="M466.29,108.31l-1.16-8.9a7,7,0,0,0-.66-2.51,1.16,1.16,0,0,0-1.21-.57,1.67,1.67,0,0,0-1.46,1.25,9,9,0,0,0,0,3.57l1,7.62-2,.27-1.16-8.9c-.28-2.19-.95-3.21-2-3.07a1.57,1.57,0,0,0-1.38,1.2,11.41,11.41,0,0,0,.07,4.06l.93,7.17-2,.26-1.8-13.82,1.6-.21.58,1.82.13,0c.38-1.48,1.13-2.29,2.25-2.44a2.68,2.68,0,0,1,3,1.94H461c.44-1.61,1.26-2.49,2.46-2.65a2.58,2.58,0,0,1,2.49.86A7.79,7.79,0,0,1,467.16,99l1.17,9Z" transform="translate(-61.23 -61.42)"/></g><g class="cls-2"><path class="cls-18" d="M208.38,381.06l2.51-.32-3.77,19.2-2.35.31-8.52-17.61,2.46-.32L204,393.51c.48,1,1,2.37,1.65,4.06.1-1.25.31-2.73.61-4.43Z" transform="translate(-61.23 -61.42)"/><path class="cls-18" d="M219,386.19l-3.43.18-.2-1.55,5.68-.74,1.56,12,4.47-.32.2,1.55-11,1.44-.2-1.55,4.29-.82Zm.18-7.65c.89-.12,1.39.3,1.52,1.26a1.32,1.32,0,0,1-1.15,1.62c-.9.12-1.41-.31-1.53-1.27S218.23,378.65,219.13,378.54Z" transform="translate(-61.23 -61.42)"/><path class="cls-18" d="M242.31,395.37l-10.85,1.41-.2-1.58,6.93-11.6-7.89,1-.22-1.72,10.21-1.33.24,1.84-6.81,11.32,8.37-1.09Z" transform="translate(-61.23 -61.42)"/></g><g class="cls-2"><path class="cls-19" d="M345.21,577l5.11-.66a8.22,8.22,0,0,1,4.75.41,3.79,3.79,0,0,1,1.86,3.1,3.53,3.53,0,0,1-.59,2.59A3.94,3.94,0,0,1,354,584v.12q3.94.12,4.38,3.47a4.65,4.65,0,0,1-1,3.81,6,6,0,0,1-3.87,1.84l-6.12.79Zm3.11,6.93,3.3-.43a4.43,4.43,0,0,0,2.56-1,2.53,2.53,0,0,0,.55-2.22,2.23,2.23,0,0,0-1.15-1.88,5.07,5.07,0,0,0-2.89-.24l-3.07.4Zm.23,1.81.8,6.13,3.57-.46c2.41-.31,3.47-1.53,3.2-3.65S354.48,585,352,585.3Z" transform="translate(-61.23 -61.42)"/><path class="cls-19" d="M365,580.45l-3.15.16-.19-1.43,5.24-.68,1.44,11.09,4.12-.3.19,1.43-10.2,1.33-.19-1.43,4-.75Zm.17-7.07c.82-.11,1.29.28,1.4,1.16a1.3,1.3,0,0,1-.23,1.06,1.26,1.26,0,0,1-.82.44c-.83.11-1.3-.28-1.42-1.17S364.31,573.49,365.14,573.38Z" transform="translate(-61.23 -61.42)"/><path class="cls-19" d="M386.37,582.86l-9,1.17q.66,4.35,4.56,3.84a10.89,10.89,0,0,0,4.18-1.44l.25,1.86a10.41,10.41,0,0,1-4.12,1.42,6.18,6.18,0,0,1-4.78-1.15,6.56,6.56,0,0,1-2.33-4.56,7.2,7.2,0,0,1,.94-5.1,5.34,5.34,0,0,1,4-2.36,5.22,5.22,0,0,1,4.14,1.05,5.89,5.89,0,0,1,2,4Zm-9.17-.55,6.66-.87c-.31-2.36-1.52-3.41-3.63-3.13S377.09,579.92,377.2,582.31Z" transform="translate(-61.23 -61.42)"/><path class="cls-19" d="M399.38,574.56l-.32,2a7.64,7.64,0,0,0-2.67-.19,3.91,3.91,0,0,0-2.79,1.46,4.34,4.34,0,0,0-.62,3.24l.9,6.88-2.12.27-1.66-12.76,1.72-.22.56,2.3h.09a6,6,0,0,1,1.64-2.22,4.94,4.94,0,0,1,2.41-.92A8.22,8.22,0,0,1,399.38,574.56Z" transform="translate(-61.23 -61.42)"/><path class="cls-19" d="M414.93,579.14l-9,1.17q.66,4.35,4.56,3.84a10.77,10.77,0,0,0,4.19-1.44l.24,1.86a10.2,10.2,0,0,1-4.12,1.42,6.14,6.14,0,0,1-4.78-1.14,6.6,6.6,0,0,1-2.33-4.56,7.28,7.28,0,0,1,.94-5.11,5.35,5.35,0,0,1,4-2.35,5.16,5.16,0,0,1,4.13,1,5.81,5.81,0,0,1,2,4Zm-9.17-.55,6.66-.87c-.31-2.36-1.51-3.41-3.62-3.13S405.66,576.2,405.76,578.59Z" transform="translate(-61.23 -61.42)"/><path class="cls-19" d="M427.56,583.57l-1.06-8.21c-.27-2-1.32-2.9-3.16-2.66-2.38.31-3.37,2-3,5.09l.86,6.61-2.11.27-1.66-12.76,1.7-.22.54,1.68h.12a4.24,4.24,0,0,1,3.65-2.46q4.51-.6,5.12,4.07l1.09,8.33Z" transform="translate(-61.23 -61.42)"/><path class="cls-19" d="M443.17,579.77l.2,1.61a12.5,12.5,0,0,1-2.88.75c-2.8.36-4.38-.79-4.72-3.45l-1-7.4-3.1.4-.14-1.09,3-1,.46-3.45,1.22-.16.44,3.41,5.09-.66.21,1.59-5.09.66,1,7.4a2,2,0,0,0,2.53,2A20.47,20.47,0,0,0,443.17,579.77Z" transform="translate(-61.23 -61.42)"/><path class="cls-19" d="M456.5,567.13l-.31,2a7.9,7.9,0,0,0-2.68-.18,3.88,3.88,0,0,0-2.78,1.45,4.36,4.36,0,0,0-.62,3.24l.89,6.88-2.11.28L447.23,568l1.72-.22.56,2.3h.09a6,6,0,0,1,1.64-2.23,4.89,4.89,0,0,1,2.41-.91A7.93,7.93,0,0,1,456.5,567.13Z" transform="translate(-61.23 -61.42)"/><path class="cls-19" d="M470.5,578l-.66-1.71h-.09a5.27,5.27,0,0,1-1.63,1.8,5.91,5.91,0,0,1-2.37.75,4.21,4.21,0,0,1-3.1-.61,3.62,3.62,0,0,1-1.44-2.66q-.51-3.86,5.4-4.82l2.35-.38-.11-.81c-.24-1.82-1.3-2.62-3.19-2.37a9.44,9.44,0,0,0-3.69,1.45l-.94-1.5a10.19,10.19,0,0,1,4.31-1.69,5.89,5.89,0,0,1,4,.51,4.11,4.11,0,0,1,1.6,3.09l1.14,8.74Zm-1.38-6.17-1.87.33a6.87,6.87,0,0,0-3.14,1.13,2.12,2.12,0,0,0-.7,2c.17,1.38,1,2,2.59,1.76a3.86,3.86,0,0,0,2.6-1.3,3.47,3.47,0,0,0,.67-2.8Z" transform="translate(-61.23 -61.42)"/><path class="cls-19" d="M484.69,576.14l-1.07-8.21q-.39-3-3.16-2.67-3.56.47-3,5.09l.86,6.62-2.12.27-1.66-12.76,1.71-.22.54,1.68.12,0a4.26,4.26,0,0,1,3.65-2.46q4.51-.59,5.12,4.07l1.09,8.34Z" transform="translate(-61.23 -61.42)"/><path class="cls-19" d="M499.39,561.71l-.48,1.93a8.93,8.93,0,0,0-3.2-.25q-4.31.55-3.68,5.36c.4,3.14,2,4.53,4.8,4.17a10.56,10.56,0,0,0,3.64-1.21l.24,1.86a9.26,9.26,0,0,1-3.73,1.21,6.22,6.22,0,0,1-4.86-1.09,6.76,6.76,0,0,1-2.28-4.64,6.89,6.89,0,0,1,1-5.19,6.42,6.42,0,0,1,4.52-2.32A11.31,11.31,0,0,1,499.39,561.71Z" transform="translate(-61.23 -61.42)"/><path class="cls-19" d="M506.56,566.76l1.34-2,4-5.16,2.58-.34-5,6.27,7,6.45-2.47.32-5.71-5.21-1.38,1.14.64,4.91-2.09.27-2.36-18.08,2.1-.27,1.07,8.29.26,3.39Z" transform="translate(-61.23 -61.42)"/></g><g class="cls-2"><path class="cls-20" d="M541.79,572.33,537,574.59l.71,5.47,5.25,1,.28,2.11-17.05-3.25-.28-2.17,15.65-7.53Zm-6.59,3.09-4.53,2.1c-.89.4-1.69.74-2.43,1,.76.06,1.46.14,2.1.25l5.41.93Z" transform="translate(-61.23 -61.42)"/><path class="cls-20" d="M539.43,566.24l0,.13,1.6.21.19,1.49-17.33,2.25-.26-2,4.18-.54c.6-.08,1.45-.16,2.53-.24v-.09a4,4,0,0,1-2.29-3.35,4.23,4.23,0,0,1,1.2-3.73,7.61,7.61,0,0,1,4.49-1.88,7.7,7.7,0,0,1,4.85.67,4.56,4.56,0,0,1,.83,7.11Zm-4.59.6a6.41,6.41,0,0,0,3.5-1.25,2.83,2.83,0,0,0,.75-2.6q-.39-3-5.09-2.42c-3.07.4-4.48,1.62-4.21,3.65a2.85,2.85,0,0,0,1.37,2.34A6.52,6.52,0,0,0,534.84,566.84Z" transform="translate(-61.23 -61.42)"/><path class="cls-20" d="M537.65,552.55l0,.14,1.59.21.2,1.48-17.33,2.25-.26-2,4.18-.55c.6-.08,1.45-.16,2.53-.24v-.09a4,4,0,0,1-2.29-3.34,4.21,4.21,0,0,1,1.2-3.73,9.25,9.25,0,0,1,9.34-1.21,4.55,4.55,0,0,1,.83,7.1Zm-4.59.6a6.41,6.41,0,0,0,3.5-1.24,2.85,2.85,0,0,0,.75-2.61c-.26-2-2-2.82-5.09-2.42s-4.48,1.62-4.21,3.65a2.85,2.85,0,0,0,1.36,2.34A6.48,6.48,0,0,0,533.06,553.15Z" transform="translate(-61.23 -61.42)"/><path class="cls-20" d="M530.59,531l1.13,8.62c2.77-.42,4-1.88,3.67-4.37a10.29,10.29,0,0,0-1.38-4l1.78-.23a9.93,9.93,0,0,1,1.37,4,5.9,5.9,0,0,1-1.1,4.58,6.29,6.29,0,0,1-4.37,2.23,7,7,0,0,1-4.89-.89,5.14,5.14,0,0,1-2.26-3.82,5,5,0,0,1,1-4,5.64,5.64,0,0,1,3.8-1.93Zm-.53,8.79-.83-6.38q-3.39.44-3,3.47T530.06,539.78Z" transform="translate(-61.23 -61.42)"/><path class="cls-20" d="M519.62,524.89l.15,3-1.36.18-.65-5,15.74-2-.29-4,1.37-.18,1.27,9.79-1.37.18-.72-3.8Z" transform="translate(-61.23 -61.42)"/><path class="cls-20" d="M531.2,503.94l1.53-.2a11,11,0,0,1,.72,2.76q.52,4-3.3,4.53l-7.1.92.39,3-1.05.14-.93-2.9-3.31-.45-.15-1.17,3.26-.42-.63-4.88,1.53-.2.63,4.88,7.09-.92a1.93,1.93,0,0,0,1.9-2.42A21.14,21.14,0,0,0,531.2,503.94Z" transform="translate(-61.23 -61.42)"/><path class="cls-20" d="M519.08,491.15l1.92.31a7.46,7.46,0,0,0-.18,2.56,3.72,3.72,0,0,0,1.4,2.66,4.14,4.14,0,0,0,3.1.6l6.6-.86.26,2L520,500l-.21-1.65,2.2-.53v-.09a5.79,5.79,0,0,1-2.13-1.57,4.7,4.7,0,0,1-.87-2.31A7.54,7.54,0,0,1,519.08,491.15Z" transform="translate(-61.23 -61.42)"/><path class="cls-20" d="M529.49,477.74l-1.64.63v.09a5.24,5.24,0,0,1,1.73,1.56,5.89,5.89,0,0,1,.72,2.28,4.08,4.08,0,0,1-.59,3,3.48,3.48,0,0,1-2.55,1.37c-2.47.33-4-1.4-4.62-5.17l-.37-2.25-.77.1q-2.62.35-2.27,3.06a8.89,8.89,0,0,0,1.39,3.53l-1.44.9a9.76,9.76,0,0,1-1.62-4.12,5.63,5.63,0,0,1,.49-3.79,3.9,3.9,0,0,1,3-1.53l8.38-1.09Zm-5.91,1.32.31,1.79a6.47,6.47,0,0,0,1.09,3,2,2,0,0,0,1.94.68c1.32-.17,1.88-1,1.69-2.49a3.69,3.69,0,0,0-1.25-2.49,3.32,3.32,0,0,0-2.68-.64Z" transform="translate(-61.23 -61.42)"/><path class="cls-20" d="M527.72,464.14l-7.88,1q-2.9.38-2.55,3c.3,2.28,1.92,3.23,4.88,2.84l6.34-.82.26,2-12.23,1.6-.21-1.64,1.61-.52,0-.11a4.08,4.08,0,0,1-2.35-3.5q-.57-4.32,3.9-4.91l8-1Z" transform="translate(-61.23 -61.42)"/><path class="cls-20" d="M520.51,456.87l-1.89-1.29-5-3.83-.32-2.47,6,4.81,6.19-6.71.3,2.37-5,5.47,1.1,1.32,4.7-.61.26,2-17.33,2.25-.26-2,7.95-1,3.24-.24Z" transform="translate(-61.23 -61.42)"/></g><g class="cls-2"><path class="cls-21" d="M607.62,384l-4.84,2.26.71,5.47,5.26,1,.28,2.12-17-3.25-.29-2.18,15.65-7.53Zm-6.6,3.09-4.53,2.1c-.88.41-1.69.75-2.42,1a21,21,0,0,1,2.1.24l5.41.93Z" transform="translate(-61.23 -61.42)"/><path class="cls-21" d="M600,370l1.12,8.62c2.78-.42,4-1.88,3.68-4.38a10.41,10.41,0,0,0-1.38-4l1.78-.23a9.87,9.87,0,0,1,1.36,3.95,5.88,5.88,0,0,1-1.1,4.58,6.29,6.29,0,0,1-4.37,2.23,6.93,6.93,0,0,1-4.89-.9,5.12,5.12,0,0,1-2.25-3.81,5,5,0,0,1,1-4,5.62,5.62,0,0,1,3.79-1.93Zm-.53,8.79-.83-6.38q-3.4.43-3,3.47T599.45,378.8Z" transform="translate(-61.23 -61.42)"/><path class="cls-21" d="M603.47,364.2l0,.13c.94-.21,1.54-.34,1.78-.37l5.23-.68.26,2-17.71,2.3-.21-1.64,1.61-.51v-.09A4.07,4.07,0,0,1,592.1,362a4.22,4.22,0,0,1,1.21-3.73,7.52,7.52,0,0,1,4.48-1.88,7.62,7.62,0,0,1,4.85.67,4.54,4.54,0,0,1,.83,7.11Zm-5,.65.45-.06a6.35,6.35,0,0,0,3.5-1.24,2.85,2.85,0,0,0,.76-2.61q-.39-3-5.1-2.41c-3.07.4-4.47,1.61-4.21,3.65a2.89,2.89,0,0,0,1.3,2.3A5.62,5.62,0,0,0,598.43,364.85Z" transform="translate(-61.23 -61.42)"/><path class="cls-21" d="M591.51,343.86l.57,4.33,10.7-1.39.27,2-10.71,1.39.46,3.53-1.22.16-.83-3.48-1.07.13a4.24,4.24,0,0,1-3.25-.59,4.75,4.75,0,0,1-1.4-3.21,10.08,10.08,0,0,1,0-2.85l1.65.25a8.74,8.74,0,0,0,0,2.34,2.43,2.43,0,0,0,.79,1.79,2.81,2.81,0,0,0,1.91.25l1.15-.15-.56-4.33Z" transform="translate(-61.23 -61.42)"/><path class="cls-21" d="M594.64,329l1.12,8.62c2.78-.43,4-1.88,3.68-4.38a10.26,10.26,0,0,0-1.39-4l1.79-.23a9.88,9.88,0,0,1,1.36,3.94,5.9,5.9,0,0,1-1.1,4.59,6.31,6.31,0,0,1-4.37,2.23,6.93,6.93,0,0,1-4.89-.9,5.13,5.13,0,0,1-2.26-3.81,5,5,0,0,1,1-4,5.6,5.6,0,0,1,3.79-1.93Zm-.54,8.79-.83-6.39q-3.39.45-3,3.48T594.1,337.74Z" transform="translate(-61.23 -61.42)"/><path class="cls-21" d="M583.66,322.84l.16,3-1.36.18-.66-5L597.54,319l-.29-3.94,1.37-.18,1.28,9.79-1.37.17-.72-3.8Z" transform="translate(-61.23 -61.42)"/><path class="cls-21" d="M595.24,301.89l1.54-.2a12,12,0,0,1,.72,2.76q.53,4-3.31,4.53l-7.09.92.38,3-1,.13-.93-2.9-3.31-.44L582,308.5l3.27-.42-.64-4.88,1.53-.2.63,4.88,7.1-.93a1.91,1.91,0,0,0,1.89-2.42A19.47,19.47,0,0,0,595.24,301.89Z" transform="translate(-61.23 -61.42)"/><path class="cls-21" d="M583.12,289.11l1.92.3a7.45,7.45,0,0,0-.17,2.56,3.71,3.71,0,0,0,1.39,2.67,4.17,4.17,0,0,0,3.11.6l6.59-.86.27,2L584,298l-.22-1.65,2.21-.54v-.09a5.63,5.63,0,0,1-2.13-1.57,4.63,4.63,0,0,1-.88-2.3A8,8,0,0,1,583.12,289.11Z" transform="translate(-61.23 -61.42)"/><path class="cls-21" d="M593.53,275.69l-1.64.63v.09a5.05,5.05,0,0,1,1.73,1.57,5.47,5.47,0,0,1,.72,2.27,4,4,0,0,1-.59,3,3.52,3.52,0,0,1-2.55,1.38q-3.69.48-4.61-5.17l-.37-2.26-.77.1q-2.62.35-2.28,3.06a9.24,9.24,0,0,0,1.39,3.54l-1.43.9a9.64,9.64,0,0,1-1.63-4.13,5.6,5.6,0,0,1,.5-3.78,3.9,3.9,0,0,1,3-1.54l8.37-1.09ZM587.62,277l.31,1.79a6.47,6.47,0,0,0,1.09,3,2,2,0,0,0,1.94.67c1.32-.17,1.89-1,1.69-2.48a3.71,3.71,0,0,0-1.24-2.5,3.38,3.38,0,0,0-2.69-.64Z" transform="translate(-61.23 -61.42)"/><path class="cls-21" d="M591.76,262.09l-7.87,1q-2.89.38-2.55,3c.29,2.27,1.92,3.22,4.87,2.84l6.34-.83.26,2-12.22,1.59-.22-1.64,1.61-.51v-.11a4.07,4.07,0,0,1-2.36-3.5q-.57-4.33,3.9-4.91l8-1Z" transform="translate(-61.23 -61.42)"/><path class="cls-21" d="M584.55,254.82l-1.89-1.28-4.95-3.83-.32-2.47,6,4.81,6.18-6.72.31,2.38-5,5.47,1.1,1.32,4.7-.61.26,2-17.33,2.26-.26-2,8-1,3.24-.24Z" transform="translate(-61.23 -61.42)"/></g><g class="cls-2"><path class="cls-22" d="M210.88,360.2l-2.12-16.29,3.81-.49a7.2,7.2,0,0,1,5.77,1.39,8.33,8.33,0,0,1,2.73,5.62,8.69,8.69,0,0,1-1.23,6.43,7.82,7.82,0,0,1-5.61,2.9Zm.2-14.79,1.65,12.73,1.07-.14q5.92-.76,5.09-7.21-.82-6.29-6.31-5.57Z" transform="translate(-61.23 -61.42)"/><path class="cls-22" d="M233.3,345.13l-.3,1.92a7.23,7.23,0,0,0-2.56-.18,3.75,3.75,0,0,0-2.67,1.39,4.27,4.27,0,0,0-.6,3.11L228,358l-2,.27L224.41,346l1.65-.21.54,2.2h.09a5.63,5.63,0,0,1,1.57-2.13,4.73,4.73,0,0,1,2.31-.88A7.72,7.72,0,0,1,233.3,345.13Z" transform="translate(-61.23 -61.42)"/><path class="cls-22" d="M246.72,355.53l-.63-1.64H246a5.05,5.05,0,0,1-1.57,1.73,5.47,5.47,0,0,1-2.27.72,4,4,0,0,1-3-.59,3.48,3.48,0,0,1-1.38-2.54q-.48-3.71,5.18-4.62l2.25-.37-.1-.77q-.34-2.62-3.06-2.27a9.11,9.11,0,0,0-3.54,1.38l-.9-1.43a9.79,9.79,0,0,1,4.13-1.62,5.59,5.59,0,0,1,3.78.49,3.92,3.92,0,0,1,1.54,3l1.09,8.37Zm-1.32-5.91-1.8.32a6.44,6.44,0,0,0-3,1.08,2,2,0,0,0-.68,1.94c.17,1.33,1,1.89,2.48,1.7a3.74,3.74,0,0,0,2.5-1.25,3.37,3.37,0,0,0,.64-2.68Z" transform="translate(-61.23 -61.42)"/><path class="cls-22" d="M260.32,353.76l-1-7.87q-.37-2.89-3-2.55c-2.28.3-3.23,1.92-2.85,4.88l.83,6.33-2,.27-1.59-12.23,1.64-.21.51,1.6h.11a4.1,4.1,0,0,1,3.5-2.36q4.33-.56,4.92,3.9l1,8Z" transform="translate(-61.23 -61.42)"/><path class="cls-22" d="M274.41,339.94l-.46,1.85a8.69,8.69,0,0,0-3.07-.25c-2.76.36-3.93,2.07-3.53,5.14s1.92,4.34,4.61,4a10.35,10.35,0,0,0,3.48-1.16l.23,1.78a8.94,8.94,0,0,1-3.57,1.16,6,6,0,0,1-4.66-1,7.78,7.78,0,0,1-1.19-9.42,6.1,6.1,0,0,1,4.33-2.23A10.43,10.43,0,0,1,274.41,339.94Z" transform="translate(-61.23 -61.42)"/><path class="cls-22" d="M281.28,344.77l1.28-1.88,3.83-4.95,2.47-.33-4.81,6,6.72,6.18-2.38.31-5.47-5-1.32,1.1.61,4.71-2,.26L278,333.85l2-.26,1,8,.24,3.24Z" transform="translate(-61.23 -61.42)"/></g><g class="cls-2"><path class="cls-17" d="M113.48,149.5l-5-13.86-.09,0c.39,2,.65,3.45.79,4.49l1.26,9.73-1.68.22-2.12-16.28,2.75-.36,4.49,12.92H114l1.06-13.64,2.8-.36L120,148.65l-1.7.22L117,139c-.1-.75-.23-2.21-.41-4.37h-.09l-1.3,14.64Z" transform="translate(-61.23 -61.42)"/><path class="cls-17" d="M128.06,147.82a5.1,5.1,0,0,1-4.18-1.21,7.81,7.81,0,0,1-1.25-9.25,5.24,5.24,0,0,1,3.85-2.22,5.13,5.13,0,0,1,4.2,1.21,6.65,6.65,0,0,1,2.14,4.39,6.75,6.75,0,0,1-.92,4.85A5.21,5.21,0,0,1,128.06,147.82Zm-.17-1.68q3.45-.45,2.84-5.13t-4.08-4.18q-3.44.45-2.84,5.08T127.89,146.14Z" transform="translate(-61.23 -61.42)"/><path class="cls-17" d="M145.19,145.37l-.51-1.6-.11,0a4.11,4.11,0,0,1-3.48,2.34c-2.9.38-4.55-.92-4.93-3.9l-1-8,2-.27,1,7.87c.25,1.93,1.25,2.79,3,2.56a3.19,3.19,0,0,0,2.49-1.37,5.57,5.57,0,0,0,.38-3.5l-.83-6.35,2-.26,1.59,12.23Z" transform="translate(-61.23 -61.42)"/><path class="cls-17" d="M150.8,144.08l-.24-1.84a10.27,10.27,0,0,0,4.25.42c2-.27,3-1,2.83-2.2a1.46,1.46,0,0,0-.69-1,9.76,9.76,0,0,0-2.67-.85,8.56,8.56,0,0,1-3.5-1.35,3,3,0,0,1-.93-1.82,2.75,2.75,0,0,1,.94-2.54,5.93,5.93,0,0,1,3.32-1.31,10.27,10.27,0,0,1,4.22.29l-.46,1.74a10,10,0,0,0-3.65-.34c-1.76.23-2.57.84-2.44,1.83a1.28,1.28,0,0,0,.7,1,12.87,12.87,0,0,0,2.74.79,8.59,8.59,0,0,1,3.34,1.28,2.88,2.88,0,0,1,1,1.94,3.07,3.07,0,0,1-1,2.79,6.29,6.29,0,0,1-3.56,1.43A9,9,0,0,1,150.8,144.08Z" transform="translate(-61.23 -61.42)"/><path class="cls-17" d="M172.58,129.81l-.46,1.85a8.42,8.42,0,0,0-3.07-.24c-2.75.35-3.93,2.07-3.53,5.13s1.93,4.35,4.61,4a10.13,10.13,0,0,0,3.48-1.16l.23,1.79a8.74,8.74,0,0,1-3.57,1.15,6,6,0,0,1-4.66-1,6.43,6.43,0,0,1-2.18-4.44,6.6,6.6,0,0,1,1-5,6.19,6.19,0,0,1,4.33-2.23A10.87,10.87,0,0,1,172.58,129.81Z" transform="translate(-61.23 -61.42)"/><path class="cls-17" d="M185.86,140.08l-1-7.88q-.37-2.89-3-2.55c-2.28.3-3.22,1.93-2.84,4.88l.83,6.34-2,.26-2.26-17.33,2-.26.67,5.14.12,1.62.11,0a4.08,4.08,0,0,1,3.5-2.35q4.34-.57,4.91,3.9l1,8Z" transform="translate(-61.23 -61.42)"/><path class="cls-17" d="M200.82,136.43,201,138a12.24,12.24,0,0,1-2.76.72q-4,.52-4.53-3.3l-.93-7.1-3,.39-.14-1.05,2.91-.93.44-3.31,1.17-.15.42,3.26,4.88-.63.2,1.52-4.88.64.92,7.09a1.92,1.92,0,0,0,2.42,1.89A19.89,19.89,0,0,0,200.82,136.43Z" transform="translate(-61.23 -61.42)"/></g><g class="cls-2"><path class="cls-23" d="M104.8,211.24l-7.88,1a6.05,6.05,0,0,0-2.22.59,1,1,0,0,0-.5,1.07,1.47,1.47,0,0,0,1.1,1.29,8.11,8.11,0,0,0,3.16,0l6.74-.88.24,1.79-7.88,1c-1.93.26-2.83.85-2.71,1.77a1.37,1.37,0,0,0,1.06,1.22,9.76,9.76,0,0,0,3.6-.06l6.33-.82.24,1.8-12.23,1.6-.18-1.42,1.61-.51,0-.12c-1.31-.33-2-1-2.16-2A2.38,2.38,0,0,1,94.82,216V216c-1.42-.39-2.21-1.12-2.34-2.18a2.26,2.26,0,0,1,.76-2.2,6.81,6.81,0,0,1,3.35-1.1l8-1Z" transform="translate(-61.23 -61.42)"/><path class="cls-23" d="M103.1,198.16l-1.6.52v.11a4.13,4.13,0,0,1,2.35,3.48q.56,4.35-3.9,4.93l-8,1-.26-2,7.87-1q2.9-.37,2.56-3a3.22,3.22,0,0,0-1.37-2.48,5.5,5.5,0,0,0-3.5-.38l-6.35.82-.26-2,12.22-1.59Z" transform="translate(-61.23 -61.42)"/><path class="cls-23" d="M101.81,192.56l-1.85.24a10.12,10.12,0,0,0,.42-4.25c-.26-2-1-3-2.2-2.83a1.47,1.47,0,0,0-1,.69,9.76,9.76,0,0,0-.85,2.67,8.56,8.56,0,0,1-1.35,3.5,2.88,2.88,0,0,1-1.83.92,2.73,2.73,0,0,1-2.54-.93,6,6,0,0,1-1.3-3.32,10.26,10.26,0,0,1,.28-4.22l1.75.45a10,10,0,0,0-.34,3.66c.23,1.75.84,2.57,1.82,2.44a1.31,1.31,0,0,0,1-.71,13.15,13.15,0,0,0,.79-2.73,8.56,8.56,0,0,1,1.28-3.35,3,3,0,0,1,1.93-1,3.09,3.09,0,0,1,2.79,1,6.2,6.2,0,0,1,1.44,3.56A9,9,0,0,1,101.81,192.56Z" transform="translate(-61.23 -61.42)"/><path class="cls-23" d="M97.72,169.92l1.54-.2a12,12,0,0,1,.72,2.76q.52,4-3.31,4.53l-7.09.92.39,3-1,.14-.93-2.9-3.31-.45-.15-1.16,3.26-.43-.63-4.88,1.52-.2.64,4.88,7.09-.92a1.92,1.92,0,0,0,1.89-2.42A19.47,19.47,0,0,0,97.72,169.92Z" transform="translate(-61.23 -61.42)"/><path class="cls-23" d="M97.75,157.1l-1.59.52v.11a4.11,4.11,0,0,1,2.34,3.48q.57,4.35-3.9,4.93l-8,1-.26-2,7.87-1q2.9-.37,2.55-3a3.16,3.16,0,0,0-1.37-2.48,5.49,5.49,0,0,0-3.5-.38l-6.34.82-.27-2,12.23-1.59Z" transform="translate(-61.23 -61.42)"/><path class="cls-23" d="M95.89,142.8l-7.87,1a5.93,5.93,0,0,0-2.22.59,1,1,0,0,0-.51,1.07,1.48,1.48,0,0,0,1.11,1.28,7.68,7.68,0,0,0,3.15,0l6.75-.88.23,1.8-7.87,1c-1.93.25-2.83.84-2.71,1.77a1.38,1.38,0,0,0,1,1.22,10.25,10.25,0,0,0,3.6-.06l6.34-.82.24,1.8L85,154.25l-.19-1.41,1.61-.52v-.11c-1.31-.33-2-1-2.16-2a2.36,2.36,0,0,1,1.71-2.63v-.07c-1.43-.39-2.21-1.11-2.35-2.17a2.3,2.3,0,0,1,.76-2.21A6.86,6.86,0,0,1,87.67,142l8-1Z" transform="translate(-61.23 -61.42)"/></g><g class="cls-2"><path class="cls-24" d="M568.32,546.74l2.21-.29-3.32,17-2.09.27-7.54-15.58,2.18-.28,4.63,9.9c.43.9.92,2.1,1.47,3.59.09-1.11.27-2.42.54-3.92Z" transform="translate(-61.23 -61.42)"/><path class="cls-24" d="M577.66,551.27l-3,.16-.17-1.37,5-.65L580.86,560l3.95-.29.18,1.37-9.78,1.28L575,561l3.8-.72Zm.16-6.77c.79-.1,1.24.27,1.35,1.12a1.27,1.27,0,0,1-.23,1,1.19,1.19,0,0,1-.79.42c-.79.11-1.24-.27-1.36-1.12A1.11,1.11,0,0,1,577.82,544.5Z" transform="translate(-61.23 -61.42)"/><path class="cls-24" d="M598.17,553.59l-8.62,1.12c.42,2.78,1.88,4,4.37,3.68a10.2,10.2,0,0,0,4-1.39l.23,1.79a9.88,9.88,0,0,1-3.94,1.36,5.86,5.86,0,0,1-4.58-1.1,6.32,6.32,0,0,1-2.24-4.37,6.93,6.93,0,0,1,.9-4.89,5.12,5.12,0,0,1,3.81-2.25,5,5,0,0,1,4,1,5.59,5.59,0,0,1,1.92,3.79Zm-8.79-.54,6.38-.83c-.3-2.26-1.45-3.26-3.47-3S589.27,550.77,589.38,553.05Z" transform="translate(-61.23 -61.42)"/><path class="cls-24" d="M611.53,556l.2,1.54a12,12,0,0,1-2.76.72q-4,.53-4.53-3.31l-.92-7.09-3,.38-.14-1,2.9-.93.44-3.31,1.17-.15.43,3.26,4.88-.64.19,1.53-4.87.63.92,7.1a1.92,1.92,0,0,0,2.42,1.89A19.47,19.47,0,0,0,611.53,556Z" transform="translate(-61.23 -61.42)"/><path class="cls-24" d="M616.27,556.5l-.24-1.85a10.22,10.22,0,0,0,4.24.42c2-.26,3-1,2.83-2.2a1.39,1.39,0,0,0-.69-1,9.41,9.41,0,0,0-2.67-.86,8.62,8.62,0,0,1-3.5-1.35,2.91,2.91,0,0,1-.92-1.82,2.78,2.78,0,0,1,.93-2.54,6,6,0,0,1,3.33-1.31,10.4,10.4,0,0,1,4.21.29l-.45,1.75a10,10,0,0,0-3.66-.34c-1.75.23-2.56.83-2.43,1.82a1.28,1.28,0,0,0,.7,1,12.32,12.32,0,0,0,2.74.8,8.5,8.5,0,0,1,3.34,1.28,2.9,2.9,0,0,1,1,1.93,3.12,3.12,0,0,1-1,2.79,6.19,6.19,0,0,1-3.57,1.43A9,9,0,0,1,616.27,556.5Z" transform="translate(-61.23 -61.42)"/></g><g class="cls-2"><path class="cls-25" d="M199.89,474.66l-4.63,2.16.68,5.23,5,.93.27,2-16.31-3.11-.27-2.08,15-7.2Zm-6.31,3-4.33,2c-.85.39-1.62.72-2.33,1,.73,0,1.4.13,2,.23l5.17.89Z" transform="translate(-61.23 -61.42)"/><path class="cls-25" d="M197.63,468.84V469c.91-.2,1.48-.32,1.71-.35l5-.65.25,1.94-16.94,2.2-.2-1.56,1.54-.49V470a3.88,3.88,0,0,1-2.24-3.2,4,4,0,0,1,1.16-3.56,7.1,7.1,0,0,1,4.28-1.8,7.27,7.27,0,0,1,4.64.64,4.36,4.36,0,0,1,.8,6.8Zm-4.83.62.44,0a6.15,6.15,0,0,0,3.35-1.19,2.73,2.73,0,0,0,.72-2.49c-.25-1.94-1.88-2.71-4.87-2.32s-4.29,1.55-4,3.5a2.76,2.76,0,0,0,1.25,2.2A5.32,5.32,0,0,0,192.8,469.46Z" transform="translate(-61.23 -61.42)"/><path class="cls-25" d="M196.65,449.73l-7.54,1c-1.84.24-2.66,1.2-2.44,2.89.29,2.18,1.84,3.09,4.67,2.72l6.06-.79.25,1.94-16.57,2.16-.25-1.94,4.92-.64,1.54-.12v-.1a3.93,3.93,0,0,1-2.26-3.35c-.36-2.76.89-4.33,3.73-4.7l7.64-1Z" transform="translate(-61.23 -61.42)"/><path class="cls-25" d="M189.18,435.12l1.07,8.24c2.65-.4,3.83-1.79,3.52-4.18a9.83,9.83,0,0,0-1.33-3.84l1.71-.22a9.44,9.44,0,0,1,1.3,3.78,5.6,5.6,0,0,1-1,4.38,6.06,6.06,0,0,1-4.18,2.14,6.69,6.69,0,0,1-4.68-.86,4.94,4.94,0,0,1-2.15-3.65,4.75,4.75,0,0,1,1-3.79,5.37,5.37,0,0,1,3.63-1.84Zm-.51,8.41-.8-6.11c-2.16.29-3.12,1.39-2.87,3.32S186.48,443.62,188.67,443.53Z" transform="translate(-61.23 -61.42)"/><path class="cls-25" d="M178.68,429.28l.15,2.89-1.3.16-.63-4.8,15-2-.27-3.78,1.31-.17,1.22,9.37-1.31.17-.69-3.64Z" transform="translate(-61.23 -61.42)"/><path class="cls-25" d="M189.75,409.24l1.47-.19a11,11,0,0,1,.69,2.64c.34,2.57-.72,4-3.16,4.33l-6.79.89.37,2.84-1,.13-.89-2.78-3.16-.42-.15-1.12,3.12-.4-.6-4.67,1.45-.19.61,4.67,6.79-.89a1.83,1.83,0,0,0,1.81-2.31A19.17,19.17,0,0,0,189.75,409.24Z" transform="translate(-61.23 -61.42)"/><path class="cls-25" d="M178.16,397l1.84.29a7.08,7.08,0,0,0-.17,2.45,3.54,3.54,0,0,0,1.33,2.55,4,4,0,0,0,3,.58l6.3-.82.25,1.93L179,405.52l-.21-1.58,2.11-.51v-.09a5.45,5.45,0,0,1-2-1.5,4.35,4.35,0,0,1-.84-2.21A7.56,7.56,0,0,1,178.16,397Z" transform="translate(-61.23 -61.42)"/><path class="cls-25" d="M188.12,384.18l-1.57.61v.08a4.88,4.88,0,0,1,1.65,1.5,5.39,5.39,0,0,1,.69,2.17,3.89,3.89,0,0,1-.56,2.84,3.35,3.35,0,0,1-2.44,1.32q-3.54.46-4.41-4.95l-.36-2.15-.73.09c-1.68.22-2.41,1.2-2.18,2.93a8.68,8.68,0,0,0,1.33,3.38l-1.37.86a9.2,9.2,0,0,1-1.56-3.94,5.44,5.44,0,0,1,.47-3.63,3.77,3.77,0,0,1,2.83-1.46l8-1Zm-5.66,1.27.3,1.71a6.27,6.27,0,0,0,1,2.88,2,2,0,0,0,1.86.65c1.26-.17,1.8-1,1.62-2.38a3.6,3.6,0,0,0-1.2-2.39,3.19,3.19,0,0,0-2.56-.61Z" transform="translate(-61.23 -61.42)"/><path class="cls-25" d="M186.42,371.17l-7.53,1c-1.84.24-2.66,1.21-2.44,2.9.29,2.18,1.84,3.09,4.67,2.72l6.06-.79.25,1.94-11.69,1.52-.21-1.56,1.54-.5v-.1a3.93,3.93,0,0,1-2.26-3.35c-.36-2.76.89-4.33,3.73-4.7l7.64-1Z" transform="translate(-61.23 -61.42)"/><path class="cls-25" d="M173.2,357.7l1.77.44a8.11,8.11,0,0,0-.24,2.93c.35,2.64,2,3.76,4.92,3.38s4.15-1.84,3.82-4.41a9.48,9.48,0,0,0-1.11-3.33l1.71-.22a8.41,8.41,0,0,1,1.11,3.42,5.75,5.75,0,0,1-1,4.45,6.16,6.16,0,0,1-4.25,2.09,6.29,6.29,0,0,1-4.76-.95,5.84,5.84,0,0,1-2.13-4.14A10.16,10.16,0,0,1,173.2,357.7Z" transform="translate(-61.23 -61.42)"/></g><g class="cls-2"><path class="cls-26" d="M540.85,165.59l-6-11.12,2-.26,3.46,6.62a22.5,22.5,0,0,1,1.51,3.32h.07a36.46,36.46,0,0,1,.62-3.6l1.64-7.28,2-.26-2.91,12.27Z" transform="translate(-61.23 -61.42)"/><path class="cls-26" d="M559.6,157.58l-8.25,1.08c.4,2.65,1.8,3.83,4.19,3.52a9.89,9.89,0,0,0,3.83-1.33l.22,1.71a9.39,9.39,0,0,1-3.77,1.3,5.6,5.6,0,0,1-4.38-1.05,6,6,0,0,1-2.14-4.18,6.63,6.63,0,0,1,.86-4.68,4.92,4.92,0,0,1,3.65-2.15,4.76,4.76,0,0,1,3.79.95,5.41,5.41,0,0,1,1.84,3.63Zm-8.41-.5,6.1-.8q-.42-3.24-3.32-2.87C552,153.66,551.09,154.89,551.19,157.08Z" transform="translate(-61.23 -61.42)"/><path class="cls-26" d="M572.38,159.87l.19,1.46a11.48,11.48,0,0,1-2.64.7q-3.85.5-4.33-3.17l-.88-6.78-2.85.37-.13-1,2.78-.9.42-3.16,1.12-.15.41,3.13,4.66-.61.19,1.46-4.66.6.88,6.79a1.83,1.83,0,0,0,2.32,1.81A18.47,18.47,0,0,0,572.38,159.87Z" transform="translate(-61.23 -61.42)"/><path class="cls-26" d="M584.64,159.9l-.49-1.53H584a3.92,3.92,0,0,1-3.33,2.24c-2.77.36-4.35-.88-4.72-3.73l-1-7.64,1.94-.25,1,7.53c.24,1.85,1.2,2.66,2.87,2.45a3.06,3.06,0,0,0,2.38-1.31,5.28,5.28,0,0,0,.36-3.35l-.79-6.07,1.94-.25,1.53,11.69Z" transform="translate(-61.23 -61.42)"/><path class="cls-26" d="M590,158.67l-.23-1.77a9.86,9.86,0,0,0,4.06.4c2-.25,2.86-1,2.71-2.1a1.34,1.34,0,0,0-.66-1,8.92,8.92,0,0,0-2.55-.82A8.12,8.12,0,0,1,590,152.1a2.76,2.76,0,0,1-.88-1.74,2.63,2.63,0,0,1,.89-2.43,5.75,5.75,0,0,1,3.18-1.26,9.87,9.87,0,0,1,4,.28l-.43,1.67a9.52,9.52,0,0,0-3.5-.32c-1.68.22-2.45.8-2.33,1.74a1.24,1.24,0,0,0,.67,1,12.81,12.81,0,0,0,2.62.76,8.21,8.21,0,0,1,3.2,1.22,2.78,2.78,0,0,1,1,1.85,3,3,0,0,1-.92,2.67,5.93,5.93,0,0,1-3.41,1.37A8.7,8.7,0,0,1,590,158.67Z" transform="translate(-61.23 -61.42)"/></g><g class="cls-2"><path class="cls-27" d="M610.38,775.45l-6-11.12,2-.26,3.46,6.61A22,22,0,0,1,611.4,774h.07c0-.32.21-1.52.62-3.61l1.65-7.27,2-.26-2.91,12.27Z" transform="translate(-61.23 -61.42)"/><path class="cls-27" d="M622.61,763.52l-2.9.15-.17-1.31,4.8-.62,1.33,10.17,3.78-.27.17,1.31-9.36,1.21-.17-1.31,3.64-.69Zm.15-6.47c.75-.1,1.18.26,1.29,1.07a1.12,1.12,0,0,1-1,1.37c-.76.1-1.2-.26-1.3-1.08A1,1,0,0,1,622.76,757.05Z" transform="translate(-61.23 -61.42)"/><path class="cls-27" d="M642.38,771.29l-9.18,1.19-.18-1.33,5.87-9.82-6.68.87-.18-1.46,8.63-1.12.21,1.55-5.77,9.58,7.09-.92Z" transform="translate(-61.23 -61.42)"/><path class="cls-27" d="M655.31,764l-8.24,1.07c.4,2.65,1.79,3.83,4.18,3.52a10,10,0,0,0,3.84-1.33l.22,1.71a9.44,9.44,0,0,1-3.78,1.3,5.6,5.6,0,0,1-4.38-1,6,6,0,0,1-2.13-4.18,6.63,6.63,0,0,1,.86-4.68,4.87,4.87,0,0,1,3.64-2.15,4.75,4.75,0,0,1,3.79,1,5.37,5.37,0,0,1,1.84,3.63Zm-8.41-.51,6.11-.8c-.28-2.17-1.39-3.12-3.32-2.87S646.81,761.33,646.9,763.53Z" transform="translate(-61.23 -61.42)"/></g><g class="cls-2"><path class="cls-28" d="M282.71,548.4l-4.41,2.07.65,5,4.8.88.25,1.94-15.57-3-.25-2,14.28-6.87Zm-6,2.82-4.13,1.92q-1.21.55-2.22.93a17.53,17.53,0,0,1,1.92.22l4.94.85Z" transform="translate(-61.23 -61.42)"/><path class="cls-28" d="M280.55,542.84l0,.12c.86-.19,1.41-.3,1.63-.33L287,542l.24,1.85L271,546l-.19-1.49,1.47-.47v-.09a3.69,3.69,0,0,1-2.14-3,3.84,3.84,0,0,1,1.11-3.4,6.88,6.88,0,0,1,4.09-1.72,7,7,0,0,1,4.43.61,4.16,4.16,0,0,1,.75,6.49Zm-4.6.6.41-.05a5.81,5.81,0,0,0,3.2-1.14,2.62,2.62,0,0,0,.69-2.38q-.36-2.76-4.65-2.21T271.75,541a2.62,2.62,0,0,0,1.19,2.1A5,5,0,0,0,276,543.44Z" transform="translate(-61.23 -61.42)"/><path class="cls-28" d="M274.11,523.15l1,7.87q3.8-.57,3.36-4a9.57,9.57,0,0,0-1.27-3.66l1.63-.21a8.76,8.76,0,0,1,1.24,3.6,5.34,5.34,0,0,1-1,4.18,5.73,5.73,0,0,1-4,2,6.32,6.32,0,0,1-4.46-.82,4.66,4.66,0,0,1-2.06-3.48,4.56,4.56,0,0,1,.91-3.62A5.16,5.16,0,0,1,273,523.3Zm-.48,8-.76-5.83q-3.11.4-2.74,3.17C270.37,530.39,271.54,531.27,273.63,531.18Z" transform="translate(-61.23 -61.42)"/><path class="cls-28" d="M264.09,517.58l.14,2.75-1.24.17-.59-4.59L276.76,514l-.26-3.61,1.25-.16,1.17,8.94-1.25.16L277,515.9Z" transform="translate(-61.23 -61.42)"/><path class="cls-28" d="M275.68,505.35v.12l1.46.2.18,1.35-15.82,2.06-.24-1.85,3.82-.5c.55-.07,1.32-.15,2.31-.22v-.08a3.68,3.68,0,0,1-2.1-3.06,3.87,3.87,0,0,1,1.11-3.4,6.91,6.91,0,0,1,4.09-1.72,7,7,0,0,1,4.43.61,4.16,4.16,0,0,1,.76,6.49Zm-4.19.55a5.77,5.77,0,0,0,3.19-1.14,2.57,2.57,0,0,0,.69-2.38q-.36-2.76-4.65-2.21c-2.8.37-4.09,1.48-3.85,3.34a2.62,2.62,0,0,0,1.25,2.13A5.94,5.94,0,0,0,271.49,505.9Z" transform="translate(-61.23 -61.42)"/><path class="cls-28" d="M274.73,487l-1.5.57v.09a4.55,4.55,0,0,1,1.58,1.43,5.1,5.1,0,0,1,.66,2.07,3.72,3.72,0,0,1-.54,2.71,3.23,3.23,0,0,1-2.33,1.26q-3.37.43-4.21-4.72l-.34-2.06-.7.09c-1.6.21-2.29,1.14-2.08,2.8a8.19,8.19,0,0,0,1.27,3.22l-1.31.82a8.86,8.86,0,0,1-1.48-3.76,5.16,5.16,0,0,1,.45-3.46,3.59,3.59,0,0,1,2.7-1.4l7.65-1Zm-5.4,1.21.29,1.63a6,6,0,0,0,1,2.75,1.88,1.88,0,0,0,1.77.62c1.21-.16,1.72-.92,1.55-2.27a3.39,3.39,0,0,0-1.14-2.28,3,3,0,0,0-2.45-.58Z" transform="translate(-61.23 -61.42)"/><path class="cls-28" d="M273.1,474.53l-1.49.58v.08a4.61,4.61,0,0,1,1.57,1.43,5,5,0,0,1,.66,2.07,3.65,3.65,0,0,1-.54,2.72,3.21,3.21,0,0,1-2.32,1.26q-3.37.43-4.22-4.73l-.34-2.06-.7.1c-1.6.2-2.29,1.13-2.08,2.79a8.38,8.38,0,0,0,1.27,3.23l-1.31.82a9,9,0,0,1-1.48-3.77,5.16,5.16,0,0,1,.45-3.46,3.59,3.59,0,0,1,2.7-1.4l7.65-1Zm-5.39,1.21.28,1.64a5.88,5.88,0,0,0,1,2.74,1.85,1.85,0,0,0,1.77.62c1.2-.16,1.72-.91,1.54-2.27a3.41,3.41,0,0,0-1.14-2.28,3.06,3.06,0,0,0-2.45-.58Z" transform="translate(-61.23 -61.42)"/><path class="cls-28" d="M271.37,461.2l-7.19.94a5.34,5.34,0,0,0-2,.53.93.93,0,0,0-.46,1,1.35,1.35,0,0,0,1,1.18,7.34,7.34,0,0,0,2.88,0l6.16-.8.21,1.63-7.19.94c-1.76.23-2.58.77-2.47,1.61a1.25,1.25,0,0,0,1,1.12,9.25,9.25,0,0,0,3.29-.06l5.79-.75.21,1.65-11.17,1.45-.16-1.29,1.47-.47,0-.1c-1.2-.31-1.85-.91-2-1.82a2.16,2.16,0,0,1,1.57-2.41v-.06c-1.3-.36-2-1-2.14-2a2.1,2.1,0,0,1,.69-2,6.21,6.21,0,0,1,3.06-1l7.29-.95Z" transform="translate(-61.23 -61.42)"/><path class="cls-28" d="M270.27,456.64l-1.69.22A9.5,9.5,0,0,0,269,453c-.25-1.86-.92-2.72-2-2.58a1.3,1.3,0,0,0-.94.63,8.85,8.85,0,0,0-.78,2.44,7.75,7.75,0,0,1-1.23,3.19,2.59,2.59,0,0,1-1.66.84,2.51,2.51,0,0,1-2.32-.85,5.45,5.45,0,0,1-1.2-3,9.52,9.52,0,0,1,.27-3.85l1.59.41a9.06,9.06,0,0,0-.31,3.34c.21,1.6.76,2.34,1.66,2.23a1.18,1.18,0,0,0,.93-.65,11.67,11.67,0,0,0,.72-2.5,8,8,0,0,1,1.17-3.05,2.66,2.66,0,0,1,1.77-.95,2.84,2.84,0,0,1,2.55.88,5.7,5.7,0,0,1,1.3,3.25A8.35,8.35,0,0,1,270.27,456.64Z" transform="translate(-61.23 -61.42)"/><path class="cls-28" d="M266.53,436l1.41-.18a10.92,10.92,0,0,1,.66,2.52q.48,3.68-3,4.13l-6.48.84.35,2.72-.95.12-.85-2.65-3-.4-.14-1.07,3-.39-.58-4.45,1.39-.18.58,4.45,6.48-.84a1.75,1.75,0,0,0,1.73-2.21A18.44,18.44,0,0,0,266.53,436Z" transform="translate(-61.23 -61.42)"/><path class="cls-28" d="M261.11,423.18l1,7.87c2.54-.38,3.65-1.72,3.36-4a9.38,9.38,0,0,0-1.26-3.67l1.62-.21a9,9,0,0,1,1.25,3.61,5.42,5.42,0,0,1-1,4.18,5.77,5.77,0,0,1-4,2,6.38,6.38,0,0,1-4.47-.82,4.69,4.69,0,0,1-2.06-3.48,4.55,4.55,0,0,1,.91-3.62,5.14,5.14,0,0,1,3.47-1.76Zm-.49,8-.76-5.83c-2.06.27-3,1.32-2.74,3.17S258.53,431.3,260.62,431.21Z" transform="translate(-61.23 -61.42)"/><path class="cls-28" d="M259.48,410.68l1,7.87q3.81-.57,3.36-4a9.39,9.39,0,0,0-1.26-3.66l1.63-.21a9,9,0,0,1,1.24,3.6,5.37,5.37,0,0,1-1,4.18,5.73,5.73,0,0,1-4,2,6.32,6.32,0,0,1-4.46-.82,4.67,4.67,0,0,1-2.07-3.48,4.57,4.57,0,0,1,.92-3.62,5.16,5.16,0,0,1,3.46-1.76Zm-.49,8-.75-5.83q-3.1.4-2.74,3.17C255.74,417.92,256.9,418.8,259,418.71Z" transform="translate(-61.23 -61.42)"/></g><g class="cls-2"><path class="cls-3" d="M358.55,528.58c-.08-.65.22-1,.91-1.11s1.09.19,1.18.84-.22,1-.92,1.11A.91.91,0,0,1,358.55,528.58Zm.5,3.82c-.08-.65.22-1,.91-1.11s1.09.18,1.17.83-.22,1-.92,1.12S359.13,533.05,359.05,532.4Zm17.89-8.31-4.41,2.07.65,5,4.8.88.25,1.93-15.57-3-.25-2,14.28-6.87Zm-6,2.82-4.13,1.92q-1.21.55-2.22.93a17.53,17.53,0,0,1,1.92.22l4.94.85Z" transform="translate(-61.23 -61.42)"/><path class="cls-3" d="M374.78,518.53l0,.12c.86-.19,1.41-.3,1.63-.33l4.77-.62.24,1.85-16.17,2.1-.19-1.49,1.47-.47v-.09a3.69,3.69,0,0,1-2.14-3.05,3.84,3.84,0,0,1,1.11-3.4,6.88,6.88,0,0,1,4.09-1.72A7,7,0,0,1,374,512a4.16,4.16,0,0,1,.75,6.49Zm-4.6.6.41,0a5.81,5.81,0,0,0,3.2-1.14,2.63,2.63,0,0,0,.69-2.38q-.36-2.76-4.65-2.21T366,516.69a2.62,2.62,0,0,0,1.19,2.1A5,5,0,0,0,370.18,519.13Z" transform="translate(-61.23 -61.42)"/><path class="cls-3" d="M373.16,506v.13c.87-.2,1.41-.31,1.64-.34l4.76-.62.24,1.85-16.16,2.1-.2-1.49,1.47-.47v-.08a3.7,3.7,0,0,1-2.13-3.06,3.84,3.84,0,0,1,1.1-3.4,6.91,6.91,0,0,1,4.09-1.72,7,7,0,0,1,4.43.62,4.15,4.15,0,0,1,.76,6.48Zm-4.61.6.42-.05a5.84,5.84,0,0,0,3.2-1.14,2.59,2.59,0,0,0,.68-2.38c-.24-1.84-1.79-2.58-4.65-2.2s-4.09,1.47-3.84,3.33a2.62,2.62,0,0,0,1.18,2.11A5.15,5.15,0,0,0,368.55,506.63Z" transform="translate(-61.23 -61.42)"/><path class="cls-3" d="M366.72,486.35l1,7.87q3.81-.59,3.36-4a9.39,9.39,0,0,0-1.26-3.66l1.62-.21a9,9,0,0,1,1.25,3.6,5.4,5.4,0,0,1-1,4.18,5.77,5.77,0,0,1-4,2,6.3,6.3,0,0,1-4.47-.82,4.69,4.69,0,0,1-2.06-3.48,4.54,4.54,0,0,1,.92-3.62,5.09,5.09,0,0,1,3.46-1.75Zm-.49,8-.76-5.83c-2.06.27-3,1.33-2.74,3.17S364.14,494.46,366.23,494.37Z" transform="translate(-61.23 -61.42)"/><path class="cls-3" d="M356.7,480.77l.14,2.76-1.24.16-.6-4.59,14.37-1.87-.26-3.6,1.25-.17,1.16,8.94-1.25.16-.66-3.47Z" transform="translate(-61.23 -61.42)"/><path class="cls-3" d="M367.46,462.89V463A3.78,3.78,0,0,1,369.6,466a3.85,3.85,0,0,1-1.11,3.4,6.88,6.88,0,0,1-4.09,1.72,7,7,0,0,1-4.43-.61,4.15,4.15,0,0,1-.74-6.5l0-.12c-.86.2-1.41.31-1.63.34l-4.44.58L352.9,463l15.83-2.06.19,1.49Zm-3.64.56-.42.05a5.8,5.8,0,0,0-3.19,1.14,2.57,2.57,0,0,0-.69,2.38c.24,1.84,1.79,2.58,4.65,2.2s4.09-1.47,3.85-3.33a2.62,2.62,0,0,0-1.19-2.1A5.06,5.06,0,0,0,363.82,463.45Z" transform="translate(-61.23 -61.42)"/><path class="cls-3" d="M356.21,450l1.75.28a6.64,6.64,0,0,0-.16,2.34,3.4,3.4,0,0,0,1.27,2.43,3.84,3.84,0,0,0,2.84.55l6-.78.24,1.85L357,458.09l-.19-1.51,2-.49V456a5.24,5.24,0,0,1-1.94-1.43,4.18,4.18,0,0,1-.8-2.11A6.89,6.89,0,0,1,356.21,450Z" transform="translate(-61.23 -61.42)"/><path class="cls-3" d="M365.71,437.72l-1.5.58v.08a4.65,4.65,0,0,1,1.58,1.43,5.36,5.36,0,0,1,.66,2.08,3.72,3.72,0,0,1-.54,2.71,3.23,3.23,0,0,1-2.33,1.26c-2.25.29-3.65-1.28-4.21-4.73l-.34-2.05-.7.09a2.17,2.17,0,0,0-2.08,2.79,8.23,8.23,0,0,0,1.27,3.23l-1.31.82a8.87,8.87,0,0,1-1.49-3.77,5.12,5.12,0,0,1,.45-3.45,3.6,3.6,0,0,1,2.71-1.4l7.64-1Zm-5.4,1.21.29,1.64a5.83,5.83,0,0,0,1,2.75,1.87,1.87,0,0,0,1.77.61c1.21-.15,1.72-.91,1.55-2.27a3.38,3.38,0,0,0-1.14-2.27,3.07,3.07,0,0,0-2.45-.59Z" transform="translate(-61.23 -61.42)"/><path class="cls-3" d="M364.09,425.31l-7.19.93c-1.76.23-2.54,1.15-2.33,2.77q.4,3.12,4.46,2.59l5.78-.75.24,1.85-11.16,1.45-.2-1.49,1.47-.47v-.1a3.73,3.73,0,0,1-2.15-3.2q-.53-4,3.56-4.48l7.29-1Z" transform="translate(-61.23 -61.42)"/><path class="cls-3" d="M357.51,418.67l-1.72-1.17-4.52-3.5-.3-2.26,5.49,4.4L362.1,410l.28,2.17-4.56,5,1,1.2,4.29-.56.23,1.83-15.82,2.06-.24-1.83,7.27-.94,2.95-.22Z" transform="translate(-61.23 -61.42)"/></g><g class="cls-2"><path class="cls-3" d="M159.27,643.22l-.58-4.47a7.25,7.25,0,0,1,.36-4.16,3.32,3.32,0,0,1,2.71-1.63,3.09,3.09,0,0,1,2.27.52,3.44,3.44,0,0,1,1.33,2h.1q.12-3.45,3-3.83a4.07,4.07,0,0,1,3.33.88,5.19,5.19,0,0,1,1.61,3.39l.7,5.36Zm6.06-2.72-.38-2.89a3.77,3.77,0,0,0-.86-2.24,2.19,2.19,0,0,0-1.94-.48,2,2,0,0,0-1.65,1,4.64,4.64,0,0,0-.21,2.54l.35,2.68Zm1.59-.21,5.36-.69-.4-3.13c-.28-2.1-1.34-3-3.2-2.8s-2.44,1.44-2.15,3.63Z" transform="translate(-61.23 -61.42)"/><path class="cls-3" d="M161.42,630.78l-.25-1.91,6.3-3.53a13.08,13.08,0,0,1,2.83-1.29V624a19.94,19.94,0,0,1-3.09-.53l-7-1.56L160,620l13.25,3.19a7.56,7.56,0,0,1,2.86,1.24,3.43,3.43,0,0,1,1.22,2.39,8.37,8.37,0,0,1,0,1.73l-1.48.19a7.49,7.49,0,0,0,0-1.4,2.44,2.44,0,0,0-.62-1.46,3.44,3.44,0,0,0-1.56-.79l-1.6-.39Z" transform="translate(-61.23 -61.42)"/><path class="cls-3" d="M158.75,608.32l1.76.28a6.87,6.87,0,0,0-.17,2.33,3.42,3.42,0,0,0,1.28,2.44,3.83,3.83,0,0,0,2.84.55l6-.79.24,1.85-11.17,1.46-.2-1.51,2-.49v-.08a5.37,5.37,0,0,1-2-1.43,4.41,4.41,0,0,1-.8-2.11A7.37,7.37,0,0,1,158.75,608.32Z" transform="translate(-61.23 -61.42)"/><path class="cls-3" d="M162.76,594.71l1,7.87q3.79-.58,3.35-4a9.39,9.39,0,0,0-1.26-3.66l1.63-.21a9,9,0,0,1,1.24,3.6,5.36,5.36,0,0,1-1,4.19,5.76,5.76,0,0,1-4,2,6.26,6.26,0,0,1-4.46-.82,4.66,4.66,0,0,1-2.06-3.48,4.54,4.54,0,0,1,.91-3.62,5.11,5.11,0,0,1,3.46-1.75Zm-.48,8-.76-5.82c-2.07.26-3,1.32-2.74,3.16S160.19,602.82,162.28,602.73Z" transform="translate(-61.23 -61.42)"/><path class="cls-3" d="M166.64,583.65l-7.19.94c-1.76.23-2.54,1.15-2.33,2.76q.4,3.12,4.46,2.6l5.78-.75.24,1.85-11.16,1.45-.2-1.5,1.47-.47v-.1a3.71,3.71,0,0,1-2.15-3.19c-.35-2.64.84-4.13,3.56-4.49l7.29-1Z" transform="translate(-61.23 -61.42)"/><path class="cls-3" d="M163.31,570l1.41-.18a10.41,10.41,0,0,1,.65,2.52c.32,2.46-.68,3.83-3,4.14l-6.48.84.35,2.72-1,.12-.85-2.65-3-.4-.13-1.07,3-.39-.57-4.45,1.39-.18.58,4.45,6.47-.84a1.75,1.75,0,0,0,1.73-2.21A18.25,18.25,0,0,0,163.31,570Z" transform="translate(-61.23 -61.42)"/><path class="cls-3" d="M152.25,558.33l1.75.28a6.89,6.89,0,0,0-.16,2.34,3.4,3.4,0,0,0,1.27,2.43,3.85,3.85,0,0,0,2.84.55l6-.78.24,1.85-11.16,1.45-.2-1.51,2-.49v-.08a5.1,5.1,0,0,1-2-1.43,4.27,4.27,0,0,1-.8-2.11A7.12,7.12,0,0,1,152.25,558.33Z" transform="translate(-61.23 -61.42)"/><path class="cls-3" d="M161.75,546.08l-1.5.58,0,.08a4.61,4.61,0,0,1,1.57,1.43,5,5,0,0,1,.66,2.08A3.68,3.68,0,0,1,162,553a3.21,3.21,0,0,1-2.33,1.26q-3.37.43-4.21-4.73l-.34-2-.7.09a2.18,2.18,0,0,0-2.08,2.79,8.38,8.38,0,0,0,1.27,3.23l-1.31.82a8.85,8.85,0,0,1-1.48-3.77,5.12,5.12,0,0,1,.45-3.45,3.56,3.56,0,0,1,2.7-1.4l7.65-1Zm-5.39,1.21.28,1.64a6.05,6.05,0,0,0,1,2.75,1.89,1.89,0,0,0,1.78.61c1.2-.15,1.72-.91,1.54-2.27a3.38,3.38,0,0,0-1.14-2.27,3.06,3.06,0,0,0-2.45-.59Z" transform="translate(-61.23 -61.42)"/><path class="cls-3" d="M160.14,533.67l-7.19.93c-1.76.23-2.54,1.15-2.33,2.77q.4,3.12,4.45,2.59l5.79-.75.24,1.85-11.17,1.45-.19-1.49,1.47-.47,0-.1a3.74,3.74,0,0,1-2.15-3.2q-.51-4,3.57-4.48l7.29-.95Z" transform="translate(-61.23 -61.42)"/><path class="cls-3" d="M147.51,520.8l1.69.42A7.8,7.8,0,0,0,149,524c.32,2.52,1.89,3.6,4.69,3.23s4-1.76,3.65-4.21a9.25,9.25,0,0,0-1.06-3.18l1.63-.21a8.08,8.08,0,0,1,1.05,3.26,5.44,5.44,0,0,1-.95,4.25,5.88,5.88,0,0,1-4.06,2,6,6,0,0,1-4.54-.91,5.61,5.61,0,0,1-2-4A9.75,9.75,0,0,1,147.51,520.8Z" transform="translate(-61.23 -61.42)"/><path class="cls-3" d="M151.93,514.53l-1.73-1.17-4.51-3.5-.3-2.25,5.48,4.39,5.65-6.13.28,2.16-4.56,5,1,1.21,4.3-.56.23,1.83L142,517.57l-.24-1.83,7.26-1,3-.22Z" transform="translate(-61.23 -61.42)"/></g><g class="cls-2"><path class="cls-29" d="M794.53,326h1.66a9.89,9.89,0,0,1,.6,3.67,6,6,0,0,1-2,4.85,8.66,8.66,0,0,1-5.71,1.68,8.19,8.19,0,0,1-5.62-1.83,6.36,6.36,0,0,1-2.07-5,8.36,8.36,0,0,1,.88-3.92l1.6.8a6.89,6.89,0,0,0-.8,3.12,4.27,4.27,0,0,0,1.63,3.52,6.77,6.77,0,0,0,4.4,1.31,7.08,7.08,0,0,0,4.49-1.23,4.32,4.32,0,0,0,1.54-3.6A12.63,12.63,0,0,0,794.53,326Z" transform="translate(-61.23 -61.42)"/><path class="cls-29" d="M780.69,318.45q0-1.08,1.17-1.08a1.16,1.16,0,0,1,.89.32,1.08,1.08,0,0,1,.29.76c0,.74-.39,1.1-1.18,1.1S780.69,319.19,780.69,318.45Zm6.11.95-.21,2.76h-1.26v-4.63h9.79l.21-3.61h1.26v9h-1.26l-.21-3.52Z" transform="translate(-61.23 -61.42)"/><path class="cls-29" d="M795.08,303.15v.08a3.75,3.75,0,0,1,1.71,3.3,3.84,3.84,0,0,1-1.53,3.23,6.85,6.85,0,0,1-4.28,1.18,7,7,0,0,1-4.31-1.18,4.14,4.14,0,0,1,.09-6.53v-.13c-.88.09-1.43.13-1.66.13h-4.47v-1.87h16v1.51Zm-3.68.08H791a5.82,5.82,0,0,0-3.32.71,2.61,2.61,0,0,0-1,2.27c0,1.86,1.45,2.79,4.33,2.79s4.24-.94,4.24-2.81a2.62,2.62,0,0,0-.9-2.24A5.14,5.14,0,0,0,791.4,303.23Z" transform="translate(-61.23 -61.42)"/><path class="cls-29" d="M785.59,288.88l1.7.5a6.75,6.75,0,0,0-.46,2.3,3.41,3.41,0,0,0,.94,2.58,3.86,3.86,0,0,0,2.75.91h6.07V297H785.33v-1.51l2.06-.23v-.08a5.28,5.28,0,0,1-1.74-1.67,4.29,4.29,0,0,1-.53-2.2A7.09,7.09,0,0,1,785.59,288.88Z" transform="translate(-61.23 -61.42)"/><path class="cls-29" d="M796.59,278h-7.25c-1.78,0-2.67.82-2.67,2.44q0,3.15,4.08,3.15h5.84v1.87h-16v-1.87h4.74l1.48.08v-.1a3.72,3.72,0,0,1-1.73-3.44q0-4,4.12-4h7.35Z" transform="translate(-61.23 -61.42)"/><path class="cls-29" d="M791.32,263.3v7.93c2.56-.05,3.84-1.23,3.84-3.52a9.43,9.43,0,0,0-.78-3.8H796a8.88,8.88,0,0,1,.77,3.74,5.4,5.4,0,0,1-1.53,4,5.77,5.77,0,0,1-4.22,1.5,6.32,6.32,0,0,1-4.32-1.39,4.64,4.64,0,0,1-1.6-3.71,4.53,4.53,0,0,1,1.38-3.47,5.07,5.07,0,0,1,3.66-1.3Zm-1.52,7.89v-5.87c-2.09,0-3.13.93-3.13,2.79S787.71,271,789.8,271.19Z" transform="translate(-61.23 -61.42)"/></g><g class="cls-2"><path class="cls-12" d="M694.83,634.53l-1.89.24L691,619.91l8.55-1.12.22,1.67-6.66.87.68,5.25,6.27-.82.22,1.67-6.27.81Z" transform="translate(-61.23 -61.42)"/><path class="cls-12" d="M707.2,623.05l-2.77.15-.16-1.25,4.59-.6,1.26,9.71,3.61-.26.16,1.25L705,633.21,704.8,632l3.47-.66Zm.14-6.18q1.08-.14,1.23,1a1.17,1.17,0,0,1-.2.92,1.12,1.12,0,0,1-.72.39c-.73.1-1.14-.25-1.24-1S706.62,617,707.34,616.87Z" transform="translate(-61.23 -61.42)"/><path class="cls-12" d="M725.92,625.17l-7.87,1q.57,3.81,4,3.36a9.39,9.39,0,0,0,3.66-1.26l.22,1.63a9.11,9.11,0,0,1-3.61,1.24,5.37,5.37,0,0,1-4.18-1,5.77,5.77,0,0,1-2-4,6.41,6.41,0,0,1,.82-4.47,4.69,4.69,0,0,1,3.48-2.06,4.56,4.56,0,0,1,3.62.92,5.09,5.09,0,0,1,1.76,3.46Zm-8-.49,5.83-.76c-.27-2.06-1.33-3-3.17-2.74S717.8,622.59,717.89,624.68Z" transform="translate(-61.23 -61.42)"/><path class="cls-12" d="M738.12,627.34l.19,1.41a11.19,11.19,0,0,1-2.52.66q-3.69.48-4.14-3l-.84-6.48-2.72.35-.12-1,2.65-.85.4-3,1.07-.14.39,3,4.45-.58.18,1.39-4.45.58.84,6.48a1.76,1.76,0,0,0,2.21,1.73A18.09,18.09,0,0,0,738.12,627.34Z" transform="translate(-61.23 -61.42)"/><path class="cls-12" d="M742.45,627.83l-.22-1.69a9.25,9.25,0,0,0,3.87.38c1.87-.24,2.73-.91,2.59-2a1.3,1.3,0,0,0-.63-.94,9,9,0,0,0-2.44-.78,7.82,7.82,0,0,1-3.2-1.23,2.69,2.69,0,0,1-.84-1.67,2.5,2.5,0,0,1,.85-2.31,5.42,5.42,0,0,1,3-1.2,9.53,9.53,0,0,1,3.85.26l-.42,1.6a9,9,0,0,0-3.34-.31c-1.6.21-2.34.76-2.22,1.66a1.18,1.18,0,0,0,.64.93,12.07,12.07,0,0,0,2.5.72,7.84,7.84,0,0,1,3,1.17,2.62,2.62,0,0,1,1,1.77,2.79,2.79,0,0,1-.88,2.54,5.61,5.61,0,0,1-3.25,1.31A8.31,8.31,0,0,1,742.45,627.83Z" transform="translate(-61.23 -61.42)"/></g><g class="cls-2"><path class="cls-30" d="M185,769.27l2-.27-3,15.52-1.9.24-6.88-14.22,2-.26,4.23,9c.39.82.83,1.92,1.33,3.28.08-1,.25-2.21.5-3.58Z" transform="translate(-61.23 -61.42)"/><path class="cls-30" d="M193.53,773.41l-2.76.14-.16-1.25,4.58-.6,1.27,9.71,3.6-.26.16,1.25-8.92,1.16-.17-1.25,3.47-.66Zm.15-6.18q1.08-.15,1.23,1a1.07,1.07,0,0,1-.93,1.31c-.72.09-1.14-.25-1.24-1S193,767.32,193.68,767.23Z" transform="translate(-61.23 -61.42)"/><path class="cls-30" d="M210.89,781l-.58-1.5h-.08a4.74,4.74,0,0,1-1.43,1.58,5.15,5.15,0,0,1-2.07.65,3.66,3.66,0,0,1-2.71-.53,3.17,3.17,0,0,1-1.26-2.33c-.3-2.25,1.28-3.66,4.72-4.22l2.06-.33-.1-.71q-.3-2.4-2.79-2.07a8.41,8.41,0,0,0-3.23,1.26l-.82-1.3a8.92,8.92,0,0,1,3.77-1.49,5.16,5.16,0,0,1,3.46.45,3.59,3.59,0,0,1,1.4,2.71l1,7.64Zm-1.21-5.4-1.64.28a5.88,5.88,0,0,0-2.74,1,1.85,1.85,0,0,0-.62,1.77c.16,1.21.91,1.72,2.27,1.54a3.4,3.4,0,0,0,2.28-1.13,3.07,3.07,0,0,0,.58-2.45Z" transform="translate(-61.23 -61.42)"/><path class="cls-30" d="M224.46,777.7l.18,1.4a10.92,10.92,0,0,1-2.52.66q-3.68.48-4.13-3l-.85-6.48-2.71.36-.13-1,2.65-.85.41-3,1.06-.14.39,3,4.46-.58.18,1.39L219,770l.85,6.48a1.75,1.75,0,0,0,2.21,1.73A18.16,18.16,0,0,0,224.46,777.7Z" transform="translate(-61.23 -61.42)"/><path class="cls-30" d="M231,768.53l-2.76.14-.16-1.25,4.58-.59,1.27,9.71,3.6-.27.16,1.26-8.92,1.16-.17-1.25,3.47-.66Zm.15-6.18c.72-.09,1.13.24,1.23,1a1.07,1.07,0,0,1-.93,1.31c-.72.09-1.14-.25-1.24-1S230.44,762.44,231.17,762.35Z" transform="translate(-61.23 -61.42)"/><path class="cls-30" d="M248.67,765.15l-.42,1.69a7.83,7.83,0,0,0-2.8-.23q-3.78.5-3.23,4.69c.36,2.76,1.76,4,4.21,3.65a9.22,9.22,0,0,0,3.18-1.05l.21,1.63a8.08,8.08,0,0,1-3.26,1.05,5.44,5.44,0,0,1-4.25-1,5.84,5.84,0,0,1-2-4.06,6,6,0,0,1,.91-4.54,5.65,5.65,0,0,1,3.95-2A10,10,0,0,1,248.67,765.15Z" transform="translate(-61.23 -61.42)"/><path class="cls-30" d="M261.15,774.48l-.47-1.46h-.1a3.74,3.74,0,0,1-3.17,2.14c-2.66.34-4.16-.84-4.51-3.56l-1-7.29,1.85-.24.94,7.19c.23,1.76,1.14,2.54,2.74,2.33a2.91,2.91,0,0,0,2.27-1.25,5.1,5.1,0,0,0,.35-3.2l-.76-5.79,1.85-.24,1.46,11.16Z" transform="translate(-61.23 -61.42)"/><path class="cls-30" d="M274.21,772.78l-.94-7.19a5.49,5.49,0,0,0-.54-2,.92.92,0,0,0-1-.46,1.35,1.35,0,0,0-1.18,1,7.33,7.33,0,0,0,0,2.88l.8,6.16-1.64.21-.93-7.19c-.23-1.76-.77-2.59-1.62-2.48a1.26,1.26,0,0,0-1.11,1,9.17,9.17,0,0,0,.05,3.29l.76,5.78-1.65.22-1.45-11.17,1.29-.16.47,1.46h.1c.3-1.2.91-1.86,1.82-2a2.16,2.16,0,0,1,2.41,1.57h.06c.35-1.3,1-2,2-2.14a2.09,2.09,0,0,1,2,.69,6.32,6.32,0,0,1,1,3.06l.94,7.29Z" transform="translate(-61.23 -61.42)"/></g><g class="cls-2"><path class="cls-25" d="M480.58,120.58,474.9,110l1.91-.25,3.3,6.31a22.07,22.07,0,0,1,1.45,3.17h.06c0-.31.21-1.45.6-3.44l1.56-7,1.92-.25-2.77,11.72Z" transform="translate(-61.23 -61.42)"/><path class="cls-25" d="M492.25,109.2l-2.76.14-.17-1.25,4.59-.6,1.26,9.71,3.61-.26.16,1.25L490,119.36l-.16-1.26,3.47-.65Zm.15-6.18q1.08-.15,1.23,1a1.07,1.07,0,0,1-.93,1.31c-.73.09-1.14-.25-1.24-1S491.67,103.11,492.4,103Z" transform="translate(-61.23 -61.42)"/><path class="cls-25" d="M509.9,105.82l-.43,1.69a7.81,7.81,0,0,0-2.8-.23c-2.51.33-3.59,1.89-3.22,4.69s1.76,4,4.21,3.65a9.44,9.44,0,0,0,3.18-1.05l.21,1.62a8,8,0,0,1-3.27,1.06,5.42,5.42,0,0,1-4.24-1,5.84,5.84,0,0,1-2-4.06,6,6,0,0,1,.91-4.54,5.58,5.58,0,0,1,3.95-2A10,10,0,0,1,509.9,105.82Z" transform="translate(-61.23 -61.42)"/><path class="cls-25" d="M522.11,115.18l-.58-1.5h-.08a4.75,4.75,0,0,1-1.43,1.58,5,5,0,0,1-2.08.66,3.72,3.72,0,0,1-2.71-.54,3.21,3.21,0,0,1-1.26-2.33c-.29-2.25,1.28-3.65,4.73-4.21l2-.34-.09-.7a2.18,2.18,0,0,0-2.79-2.08,8.17,8.17,0,0,0-3.23,1.27l-.82-1.31a8.85,8.85,0,0,1,3.77-1.48,5.13,5.13,0,0,1,3.45.45,3.56,3.56,0,0,1,1.4,2.7l1,7.65Zm-1.21-5.4-1.64.29a6.05,6.05,0,0,0-2.75,1,1.86,1.86,0,0,0-.61,1.77c.15,1.21.91,1.73,2.27,1.55a3.38,3.38,0,0,0,2.27-1.14,3.07,3.07,0,0,0,.59-2.45Z" transform="translate(-61.23 -61.42)"/><path class="cls-25" d="M534.85,102.43l-.28,1.75a6.64,6.64,0,0,0-2.34-.16,3.4,3.4,0,0,0-2.43,1.27,3.84,3.84,0,0,0-.55,2.84l.79,6-1.85.24-1.46-11.17,1.51-.19.49,2h.08a5.24,5.24,0,0,1,1.43-1.94,4.31,4.31,0,0,1,2.11-.8A6.89,6.89,0,0,1,534.85,102.43Z" transform="translate(-61.23 -61.42)"/><path class="cls-25" d="M542.24,102.7l-2.77.14-.16-1.25,4.59-.6,1.26,9.71,3.61-.26.16,1.25L540,112.85l-.16-1.25,3.47-.66Zm.14-6.19q1.08-.14,1.23,1a1.16,1.16,0,0,1-.2.92,1,1,0,0,1-.72.39c-.73.1-1.14-.25-1.24-1S541.66,96.61,542.38,96.51Z" transform="translate(-61.23 -61.42)"/><path class="cls-25" d="M559.87,110.27l-.47-1.46h-.1a3.74,3.74,0,0,1-3.18,2.14q-4,.53-4.5-3.56l-1-7.29,1.85-.24.94,7.19c.22,1.76,1.14,2.54,2.74,2.33a2.91,2.91,0,0,0,2.27-1.25,5.1,5.1,0,0,0,.35-3.2l-.76-5.79,1.85-.24,1.46,11.16Z" transform="translate(-61.23 -61.42)"/><path class="cls-25" d="M565,109.09l-.22-1.68a9.31,9.31,0,0,0,3.88.38q2.79-.36,2.58-2a1.29,1.29,0,0,0-.63-.94,8.85,8.85,0,0,0-2.44-.78,7.87,7.87,0,0,1-3.19-1.24,2.62,2.62,0,0,1-.85-1.66,2.53,2.53,0,0,1,.86-2.32,5.42,5.42,0,0,1,3-1.19,9.34,9.34,0,0,1,3.85.26l-.41,1.59a9,9,0,0,0-3.34-.3c-1.6.2-2.34.76-2.23,1.66a1.18,1.18,0,0,0,.65.92,10.92,10.92,0,0,0,2.5.73,8,8,0,0,1,3.05,1.17,2.68,2.68,0,0,1,.95,1.76,2.82,2.82,0,0,1-.88,2.55,5.64,5.64,0,0,1-3.25,1.31A8.19,8.19,0,0,1,565,109.09Z" transform="translate(-61.23 -61.42)"/></g><g class="cls-2"><path class="cls-31" d="M391.48,754.06l-5.68-10.61,1.91-.25,3.3,6.31a21,21,0,0,1,1.45,3.18h.06c0-.31.21-1.45.6-3.44l1.57-7,1.92-.25-2.78,11.72Z" transform="translate(-61.23 -61.42)"/><path class="cls-31" d="M403.15,742.68l-2.76.14-.16-1.25,4.58-.59,1.27,9.71,3.6-.27.17,1.26-8.93,1.16-.17-1.25,3.48-.66Zm.15-6.18q1.08-.13,1.23,1a1.07,1.07,0,0,1-.93,1.31c-.72.09-1.14-.25-1.24-1A1,1,0,0,1,403.3,736.5Z" transform="translate(-61.23 -61.42)"/><path class="cls-31" d="M420.8,739.3l-.42,1.69a7.83,7.83,0,0,0-2.8-.23c-2.52.33-3.59,1.89-3.23,4.7s1.76,4,4.21,3.64a9.22,9.22,0,0,0,3.18-1.05l.21,1.63a8.08,8.08,0,0,1-3.26,1.05,5.45,5.45,0,0,1-4.25-1,5.88,5.88,0,0,1-2-4.06,6,6,0,0,1,.91-4.54,5.61,5.61,0,0,1,3.95-2A10,10,0,0,1,420.8,739.3Z" transform="translate(-61.23 -61.42)"/><path class="cls-31" d="M434.37,743.17l-7.87,1q.58,3.81,4,3.36a9.39,9.39,0,0,0,3.66-1.26l.21,1.63a9,9,0,0,1-3.6,1.24,5.4,5.4,0,0,1-4.19-1,5.81,5.81,0,0,1-2-4,6.37,6.37,0,0,1,.82-4.46,4.71,4.71,0,0,1,3.49-2.07,4.54,4.54,0,0,1,3.61.92,5.08,5.08,0,0,1,1.76,3.46Zm-8-.49,5.82-.76c-.27-2.06-1.32-3-3.17-2.74S426.25,740.59,426.35,742.68Z" transform="translate(-61.23 -61.42)"/><path class="cls-31" d="M441.47,747.56,435.79,737l1.91-.25L441,743a22.07,22.07,0,0,1,1.45,3.17h.06c0-.31.21-1.46.6-3.44l1.56-7,1.92-.25-2.77,11.72Z" transform="translate(-61.23 -61.42)"/><path class="cls-31" d="M453.14,736.18l-2.76.14-.17-1.25,4.59-.6,1.26,9.71,3.61-.26.16,1.25-8.92,1.16-.17-1.25,3.47-.66Zm.15-6.18c.72-.1,1.13.24,1.23,1a1.16,1.16,0,0,1-.21.93,1.07,1.07,0,0,1-.72.38c-.72.1-1.14-.24-1.24-1S452.56,730.09,453.29,730Z" transform="translate(-61.23 -61.42)"/><path class="cls-31" d="M470.42,743.79l-.94-7.19c-.23-1.76-1.15-2.53-2.76-2.32q-3.12.4-2.6,4.45l.76,5.79-1.85.24-1.46-11.17,1.5-.19.47,1.47.1,0a3.73,3.73,0,0,1,3.19-2.15c2.64-.34,4.14.84,4.49,3.56l.95,7.29Z" transform="translate(-61.23 -61.42)"/><path class="cls-31" d="M483.27,742.12l-.47-1.46-.1,0a3.77,3.77,0,0,1-3.18,2.14q-4,.51-4.5-3.56l-.95-7.3,1.85-.24.94,7.19c.22,1.77,1.14,2.54,2.74,2.34a2.92,2.92,0,0,0,2.27-1.26,5.07,5.07,0,0,0,.35-3.19l-.76-5.8,1.85-.24,1.45,11.17Z" transform="translate(-61.23 -61.42)"/><path class="cls-31" d="M496.33,740.42l-.94-7.19a5.49,5.49,0,0,0-.54-2,.93.93,0,0,0-1-.47,1.36,1.36,0,0,0-1.18,1,7.34,7.34,0,0,0,0,2.88l.8,6.16-1.64.22-.93-7.19c-.23-1.76-.77-2.59-1.62-2.48a1.25,1.25,0,0,0-1.11,1,9.11,9.11,0,0,0,.05,3.28l.75,5.79-1.64.21-1.45-11.16,1.29-.17.47,1.47h.1c.3-1.2.91-1.86,1.82-2a2.18,2.18,0,0,1,2.41,1.57H492c.35-1.3,1-2,2-2.14a2.1,2.1,0,0,1,2,.7,6.29,6.29,0,0,1,1,3.06l1,7.29Z" transform="translate(-61.23 -61.42)"/></g><g class="cls-2"><path class="cls-30" d="M596.09,129.94l-10.62,5.68-.25-1.91,6.32-3.3a21.58,21.58,0,0,1,3.17-1.45v-.06c-.3,0-1.45-.2-3.44-.59l-6.94-1.57-.25-1.92,11.71,2.77Z" transform="translate(-61.23 -61.42)"/><path class="cls-30" d="M578.52,118.12c-.09-.71.25-1.12,1-1.22a1.1,1.1,0,0,1,.92.2,1.12,1.12,0,0,1,.39.72c.1.73-.25,1.14-1,1.24A1,1,0,0,1,578.52,118.12Zm6.18.15.14,2.76-1.25.17-.59-4.59,9.71-1.26-.26-3.61,1.25-.16,1.16,8.93-1.25.16L593,117.2Z" transform="translate(-61.23 -61.42)"/><path class="cls-30" d="M590.62,99.84l1.4-.18a10.92,10.92,0,0,1,.66,2.52q.48,3.67-3,4.13l-6.47.85.35,2.71-1,.13-.85-2.65-3-.41-.14-1.06,3-.39L581,101l1.4-.18.57,4.46,6.48-.85a1.75,1.75,0,0,0,1.73-2.21A18.16,18.16,0,0,0,590.62,99.84Z" transform="translate(-61.23 -61.42)"/><path class="cls-30" d="M585.19,87.05l1,7.87q3.79-.57,3.35-4a9.39,9.39,0,0,0-1.26-3.66l1.63-.22a9,9,0,0,1,1.24,3.61,5.37,5.37,0,0,1-1,4.18,5.73,5.73,0,0,1-4,2,6.37,6.37,0,0,1-4.46-.82,4.66,4.66,0,0,1-2.06-3.48,4.53,4.53,0,0,1,.91-3.62A5.12,5.12,0,0,1,584,87.2Zm-.48,8L584,89.25q-3.11.41-2.75,3.17T584.71,95.08Z" transform="translate(-61.23 -61.42)"/></g><g class="cls-2"><path class="cls-31" d="M277.74,777.68l2-.27-3,15.52-1.91.24L267.94,779l2-.26,4.23,9c.39.82.83,1.92,1.33,3.28.09-1,.25-2.21.5-3.58Z" transform="translate(-61.23 -61.42)"/><path class="cls-31" d="M286.27,781.82l-2.76.14-.16-1.25,4.58-.6,1.27,9.71,3.6-.26.17,1.25L284,792l-.17-1.25,3.48-.66Zm.15-6.18q1.08-.15,1.23,1a1.14,1.14,0,0,1-.21.92,1.1,1.1,0,0,1-.72.39c-.72.09-1.14-.25-1.24-1S285.69,775.73,286.42,775.64Z" transform="translate(-61.23 -61.42)"/><path class="cls-31" d="M304.7,787.73l.19,1.41a11.19,11.19,0,0,1-2.52.66q-3.69.48-4.14-3l-.84-6.48-2.72.35-.12-.95,2.65-.85.4-3,1.07-.14.39,3,4.45-.58.18,1.39-4.45.58.84,6.48a1.76,1.76,0,0,0,2.21,1.73A18.09,18.09,0,0,0,304.7,787.73Z" transform="translate(-61.23 -61.42)"/><path class="cls-31" d="M317.64,787.6l-8.76,1.14-.17-1.27,5.61-9.37-6.38.83-.18-1.4,8.25-1.07.19,1.49-5.5,9.14,6.76-.88Z" transform="translate(-61.23 -61.42)"/></g><g class="cls-2"><path class="cls-32" d="M755.92,253.69H745.44V252.2l8.13-11.8h-7.92v-1.7h10.06v1.49L747.58,252h8.34Z" transform="translate(-61.23 -61.42)"/><path class="cls-32" d="M762.54,243.91l-2.76-.22v-1.26h4.63v9.79l3.61.21v1.26h-9v-1.26l3.53-.21Zm1-6.11q1.08,0,1.08,1.17a1.14,1.14,0,0,1-.32.88,1.09,1.09,0,0,1-.76.3c-.74,0-1.1-.4-1.1-1.18S762.75,237.8,763.49,237.8Z" transform="translate(-61.23 -61.42)"/><path class="cls-32" d="M778.79,252.18h-.08a3.73,3.73,0,0,1-3.3,1.72,3.85,3.85,0,0,1-3.23-1.54,6.85,6.85,0,0,1-1.18-4.28,6.94,6.94,0,0,1,1.18-4.31,4.15,4.15,0,0,1,6.53.1h.13c-.09-.88-.13-1.44-.13-1.66v-4.47h1.87v15.95h-1.51Zm-.08-3.68v-.42a5.91,5.91,0,0,0-.71-3.32,2.61,2.61,0,0,0-2.27-1c-1.86,0-2.79,1.45-2.79,4.33s.94,4.25,2.81,4.25a2.63,2.63,0,0,0,2.24-.91A5.12,5.12,0,0,0,778.71,248.5Z" transform="translate(-61.23 -61.42)"/><path class="cls-32" d="M793.44,248.42H785.5q.07,3.84,3.53,3.84a9.41,9.41,0,0,0,3.79-.77v1.64a9,9,0,0,1-3.73.77,5.38,5.38,0,0,1-4-1.54,5.74,5.74,0,0,1-1.51-4.22,6.39,6.39,0,0,1,1.39-4.32,4.7,4.7,0,0,1,3.72-1.59,4.52,4.52,0,0,1,3.47,1.37,5.15,5.15,0,0,1,1.3,3.66Zm-7.9-1.52h5.88c0-2.08-.93-3.13-2.79-3.13S785.72,244.82,785.54,246.9Z" transform="translate(-61.23 -61.42)"/><path class="cls-32" d="M805.66,242.69l-.5,1.7a6.7,6.7,0,0,0-2.3-.46,3.43,3.43,0,0,0-2.58.95,3.82,3.82,0,0,0-.91,2.74v6.07h-1.86V242.43H799l.22,2.06h.08a5.28,5.28,0,0,1,1.67-1.74,4.29,4.29,0,0,1,2.2-.52A7,7,0,0,1,805.66,242.69Z" transform="translate(-61.23 -61.42)"/></g></svg>